<svg xmlns="http://www.w3.org/2000/svg" width="168" height="51" viewBox="0 0 168 51" fill="none">
  <path d="M0.808594 23.4554L11.9768 0L23.145 23.4554H18.1196L11.9768 10.611L5.83397 23.4554H0.808594Z" fill="white"/>
  <path d="M42.8302 1.11719V5.5854H28.7299V18.9885H42.8302V23.4567H24.2617V1.11719H42.8302ZM39.2834 14.5203H24.9185V10.0521H39.2834V14.5203Z" fill="white"/>
  <path d="M57.0242 5.58345V23.4532H52.556V5.58345H43.6211V1.11523H65.959V5.58345H57.0242Z" fill="white"/>
  <path d="M71.1752 14.5187V23.4536H66.707V1.11719H71.1752V10.0521H80.2331V1.11719H84.7013V23.4551H80.2331V14.5203H71.1752V14.5187Z" fill="white"/>
  <path d="M104.939 1.11719V5.5854H90.2299V18.9885H104.939V23.4567H85.7617V1.11719H104.939ZM101.014 14.5203H86.4745V10.0521H101.014V14.5203Z" fill="white"/>
  <path d="M91.0073 40.7664V49.7012H86.5391V27.3633H91.0073V36.2981H100.065V27.3633H104.533V49.7012H100.065V40.7664H91.0073Z" fill="white"/>
  <path d="M124.779 27.3633V31.8315H110.07V45.2346H124.779V49.7028H105.602V27.3648H124.779V27.3633ZM120.854 40.7664H106.314V36.2982H120.854V40.7664Z" fill="white"/>
  <path d="M110.277 23.4551H105.809V1.11719H121.445C123.306 1.11719 124.889 1.76929 126.192 3.07193C127.494 4.37458 128.147 5.95736 128.147 7.81873C128.147 9.68009 127.494 11.2629 126.192 12.5655C124.888 13.8697 123.306 14.5203 121.445 14.5203H120.468L125.491 23.6995H120.31L113.626 10.0521H121.445C122.074 10.0521 122.603 9.83728 123.032 9.40618C123.462 8.97508 123.678 8.44593 123.678 7.81873C123.678 7.19153 123.464 6.66082 123.032 6.23127C122.601 5.80173 122.072 5.5854 121.445 5.5854H110.277V23.4551Z" fill="white"/>
  <path d="M5.2768 50.2598H0.808594V27.9219H16.445C18.3064 27.9219 19.8892 28.574 21.1918 29.8766C22.4944 31.1793 23.1465 32.762 23.1465 34.6234C23.1465 36.4848 22.4944 38.0676 21.1918 39.3702C19.8876 40.6744 18.3064 41.325 16.445 41.325H10.8609V36.8567H16.445C17.0738 36.8567 17.6029 36.642 18.0325 36.2109C18.462 35.7798 18.6783 35.2506 18.6783 34.6234C18.6783 33.9962 18.4636 33.4655 18.0325 33.036C17.6014 32.6064 17.0722 32.3901 16.445 32.3901H5.2768V50.2598Z" fill="white"/>
  <path d="M18.6758 50.2601L29.844 26.8047L41.0122 50.2601H35.9868L29.844 37.4157L23.7012 50.2601H18.6758Z" fill="white"/>
  <path d="M46.812 34.6234V50.2598H42.3438V27.9219H46.812L57.4993 43.5583V27.623H61.9675V50.2598H57.4993L46.812 34.6234Z" fill="white"/>
  <path d="M152.847 34.6234V50.2598H148.379V27.9219H152.847L163.534 43.5583V27.623H168.003V50.2598H163.534L152.847 34.6234Z" fill="white"/>
  <path d="M76.489 32.1186V50.7758H72.0208V32.1186H63.0859V27.6504H85.4239V32.1186H76.489Z" fill="white"/>
  <path d="M135.693 31.7137C139.16 31.7137 141.98 34.7734 141.98 38.5335C141.98 42.2936 139.16 45.3533 135.693 45.3533C132.225 45.3533 129.405 42.2936 129.405 38.5335C129.405 34.7734 132.225 31.7137 135.693 31.7137ZM135.693 27.082C129.662 27.082 124.773 32.2086 124.773 38.5335C124.773 44.8584 129.662 49.9849 135.693 49.9849C141.723 49.9849 146.612 44.8584 146.612 38.5335C146.612 32.2086 141.723 27.082 135.693 27.082Z" fill="white"/>
</svg>