<svg xmlns="http://www.w3.org/2000/svg" width="39" height="40" viewBox="0 0 39 40" fill="none">
  <g clip-path="url(#clip0_3871_141089)">
    <path d="M27.0413 0.810232C26.9597 0.719032 24.0197 0.846233 21.4613 3.62303C18.9029 6.39743 19.2965 9.57983 19.3541 9.66143C19.4117 9.74303 23.0021 9.87023 25.2941 6.64223C27.5861 3.41423 27.1229 0.903832 27.0413 0.810232ZM34.9949 28.9694C34.8797 28.739 29.4149 26.0078 29.9237 20.7566C30.4325 15.503 33.9437 14.063 33.9989 13.907C34.0541 13.751 32.5661 12.011 30.9893 11.1302C29.8316 10.5092 28.5503 10.1535 27.2381 10.0886C26.9789 10.0814 26.0789 9.86063 24.2285 10.367C23.0093 10.7006 20.2613 11.7806 19.5053 11.8238C18.7469 11.867 16.4909 10.571 14.0645 10.2278C12.5117 9.92783 10.8653 10.5422 9.68691 11.015C8.51091 11.4854 6.27411 12.8246 4.70931 16.3838C3.14451 19.9406 3.96291 25.5758 4.54851 27.3278C5.13411 29.0774 6.04851 31.9454 7.60371 34.0382C8.98611 36.3998 10.8197 38.039 11.5853 38.5958C12.3509 39.1526 14.5109 39.5222 16.0085 38.7566C17.2133 38.0174 19.3877 37.5926 20.2469 37.6238C21.1037 37.655 22.7933 37.9934 24.5237 38.9174C25.8941 39.3902 27.1901 39.1934 28.4885 38.6654C29.7869 38.135 31.6661 36.1238 33.8597 32.0462C34.6925 30.1502 35.0717 29.1254 34.9949 28.9694Z" fill="#1A1C22"/>
    <path d="M27.0413 0.810232C26.9597 0.719032 24.0197 0.846233 21.4613 3.62303C18.9029 6.39743 19.2965 9.57983 19.3541 9.66143C19.4117 9.74303 23.0021 9.87023 25.2941 6.64223C27.5861 3.41423 27.1229 0.903832 27.0413 0.810232ZM34.9949 28.9694C34.8797 28.739 29.4149 26.0078 29.9237 20.7566C30.4325 15.503 33.9437 14.063 33.9989 13.907C34.0541 13.751 32.5661 12.011 30.9893 11.1302C29.8316 10.5092 28.5503 10.1535 27.2381 10.0886C26.9789 10.0814 26.0789 9.86063 24.2285 10.367C23.0093 10.7006 20.2613 11.7806 19.5053 11.8238C18.7469 11.867 16.4909 10.571 14.0645 10.2278C12.5117 9.92783 10.8653 10.5422 9.68691 11.015C8.51091 11.4854 6.27411 12.8246 4.70931 16.3838C3.14451 19.9406 3.96291 25.5758 4.54851 27.3278C5.13411 29.0774 6.04851 31.9454 7.60371 34.0382C8.98611 36.3998 10.8197 38.039 11.5853 38.5958C12.3509 39.1526 14.5109 39.5222 16.0085 38.7566C17.2133 38.0174 19.3877 37.5926 20.2469 37.6238C21.1037 37.655 22.7933 37.9934 24.5237 38.9174C25.8941 39.3902 27.1901 39.1934 28.4885 38.6654C29.7869 38.135 31.6661 36.1238 33.8597 32.0462C34.6925 30.1502 35.0717 29.1254 34.9949 28.9694Z" fill="#1A1C22"/>
  </g>
  <defs>
    <clipPath id="clip0_3871_141089">
      <rect width="38.4" height="38.4" fill="white" transform="translate(0.203125 0.791992)"/>
    </clipPath>
  </defs>
</svg>