<svg width="1440" height="7238" viewBox="0 0 1440 7238" fill="none" xmlns="http://www.w3.org/2000/svg">
<g clip-path="url(#clip0_4409_139656)">
<rect width="1440" height="7238" fill="url(#paint0_linear_4409_139656)"/>
<g filter="url(#filter0_f_4409_139656)">
<ellipse cx="773" cy="2760" rx="741" ry="747" fill="url(#paint1_linear_4409_139656)" fill-opacity="0.3"/>
</g>
<g opacity="0.2" filter="url(#filter1_f_4409_139656)">
<path d="M1824 453C1824 692.139 1630.14 886 1391 886C1151.86 886 958 692.139 958 453C958 213.861 1151.86 20 1391 20C1630.14 20 1824 213.861 1824 453Z" fill="url(#paint2_radial_4409_139656)"/>
</g>
<g opacity="0.3" filter="url(#filter2_f_4409_139656)">
<circle cx="1392.5" cy="3272.5" r="350.5" fill="url(#paint3_radial_4409_139656)"/>
</g>
<g opacity="0.2" filter="url(#filter3_f_4409_139656)">
<circle cx="227" cy="5456" r="433" fill="url(#paint4_radial_4409_139656)"/>
</g>
<g opacity="0.15" filter="url(#filter4_f_4409_139656)">
<circle cx="1518.5" cy="5556.5" r="388.5" fill="url(#paint5_linear_4409_139656)"/>
</g>
<g opacity="0.1" filter="url(#filter5_f_4409_139656)">
<circle cx="195.5" cy="4579.5" r="388.5" fill="url(#paint6_linear_4409_139656)"/>
</g>
<g opacity="0.5">
<g filter="url(#filter6_ddd_4409_139656)">
<path fill-rule="evenodd" clip-rule="evenodd" d="M247.959 1484.2L246.078 1472.83L244.197 1484.2L232.78 1486.08L244.197 1487.95L246.078 1499.32L247.959 1487.95L259.376 1486.08L247.959 1484.2ZM263.209 1486.08L248.501 1488.49L246.078 1503.14L243.655 1488.49L228.947 1486.08L243.655 1483.66L246.078 1469.02L248.501 1483.66L263.209 1486.08Z" fill="white" fill-opacity="0.5"/>
<path fill-rule="evenodd" clip-rule="evenodd" d="M249.75 1486.07L247.869 1474.69L245.988 1486.07L234.571 1487.94L245.988 1489.81L247.869 1501.18L249.75 1489.81L261.167 1487.94L249.75 1486.07ZM265 1487.94L250.292 1490.35L247.869 1505L245.446 1490.35L230.738 1487.94L245.446 1485.53L247.869 1470.88L250.292 1485.53L265 1487.94Z" fill="white" fill-opacity="0.5"/>
<path d="M244.131 1467L246.554 1481.65L261.262 1484.06L246.554 1486.47L244.131 1501.12L241.708 1486.47L227 1484.06L241.708 1481.65L244.131 1467Z" fill="white" fill-opacity="0.5"/>
</g>
</g>
<g opacity="0.5">
<g filter="url(#filter7_ddd_4409_139656)">
<path fill-rule="evenodd" clip-rule="evenodd" d="M1304.96 1239.2L1303.08 1227.83L1301.2 1239.2L1289.78 1241.08L1301.2 1242.95L1303.08 1254.32L1304.96 1242.95L1316.38 1241.08L1304.96 1239.2ZM1320.21 1241.08L1305.5 1243.49L1303.08 1258.14L1300.66 1243.49L1285.95 1241.08L1300.66 1238.66L1303.08 1224.02L1305.5 1238.66L1320.21 1241.08Z" fill="white" fill-opacity="0.5"/>
<path fill-rule="evenodd" clip-rule="evenodd" d="M1306.75 1241.07L1304.87 1229.69L1302.99 1241.07L1291.57 1242.94L1302.99 1244.81L1304.87 1256.18L1306.75 1244.81L1318.17 1242.94L1306.75 1241.07ZM1322 1242.94L1307.29 1245.35L1304.87 1260L1302.45 1245.35L1287.74 1242.94L1302.45 1240.53L1304.87 1225.88L1307.29 1240.53L1322 1242.94Z" fill="white" fill-opacity="0.5"/>
<path d="M1301.13 1222L1303.55 1236.65L1318.26 1239.06L1303.55 1241.47L1301.13 1256.12L1298.71 1241.47L1284 1239.06L1298.71 1236.65L1301.13 1222Z" fill="white" fill-opacity="0.5"/>
</g>
</g>
<g opacity="0.5">
<g filter="url(#filter8_ddd_4409_139656)">
<path fill-rule="evenodd" clip-rule="evenodd" d="M1301.96 1858.2L1300.08 1846.83L1298.2 1858.2L1286.78 1860.08L1298.2 1861.95L1300.08 1873.32L1301.96 1861.95L1313.38 1860.08L1301.96 1858.2ZM1317.21 1860.08L1302.5 1862.49L1300.08 1877.14L1297.66 1862.49L1282.95 1860.08L1297.66 1857.66L1300.08 1843.02L1302.5 1857.66L1317.21 1860.08Z" fill="white" fill-opacity="0.5"/>
<path fill-rule="evenodd" clip-rule="evenodd" d="M1303.75 1860.07L1301.87 1848.69L1299.99 1860.07L1288.57 1861.94L1299.99 1863.81L1301.87 1875.18L1303.75 1863.81L1315.17 1861.94L1303.75 1860.07ZM1319 1861.94L1304.29 1864.35L1301.87 1879L1299.45 1864.35L1284.74 1861.94L1299.45 1859.53L1301.87 1844.88L1304.29 1859.53L1319 1861.94Z" fill="white" fill-opacity="0.5"/>
<path d="M1298.13 1841L1300.55 1855.65L1315.26 1858.06L1300.55 1860.47L1298.13 1875.12L1295.71 1860.47L1281 1858.06L1295.71 1855.65L1298.13 1841Z" fill="white" fill-opacity="0.5"/>
</g>
</g>
<g opacity="0.22" filter="url(#filter9_f_4409_139656)">
<circle cx="1467.5" cy="1943.5" r="253.5" fill="url(#paint7_linear_4409_139656)"/>
</g>
<g opacity="0.2" filter="url(#filter10_f_4409_139656)">
<circle cx="1414" cy="7220" r="433" fill="url(#paint8_radial_4409_139656)"/>
</g>
</g>
<defs>
<filter id="filter0_f_4409_139656" x="-268" y="1713" width="2082" height="2094" filterUnits="userSpaceOnUse" color-interpolation-filters="sRGB">
<feFlood flood-opacity="0" result="BackgroundImageFix"/>
<feBlend mode="normal" in="SourceGraphic" in2="BackgroundImageFix" result="shape"/>
<feGaussianBlur stdDeviation="150" result="effect1_foregroundBlur_4409_139656"/>
</filter>
<filter id="filter1_f_4409_139656" x="658" y="-280" width="1466" height="1466" filterUnits="userSpaceOnUse" color-interpolation-filters="sRGB">
<feFlood flood-opacity="0" result="BackgroundImageFix"/>
<feBlend mode="normal" in="SourceGraphic" in2="BackgroundImageFix" result="shape"/>
<feGaussianBlur stdDeviation="150" result="effect1_foregroundBlur_4409_139656"/>
</filter>
<filter id="filter2_f_4409_139656" x="742" y="2622" width="1301" height="1301" filterUnits="userSpaceOnUse" color-interpolation-filters="sRGB">
<feFlood flood-opacity="0" result="BackgroundImageFix"/>
<feBlend mode="normal" in="SourceGraphic" in2="BackgroundImageFix" result="shape"/>
<feGaussianBlur stdDeviation="150" result="effect1_foregroundBlur_4409_139656"/>
</filter>
<filter id="filter3_f_4409_139656" x="-506" y="4723" width="1466" height="1466" filterUnits="userSpaceOnUse" color-interpolation-filters="sRGB">
<feFlood flood-opacity="0" result="BackgroundImageFix"/>
<feBlend mode="normal" in="SourceGraphic" in2="BackgroundImageFix" result="shape"/>
<feGaussianBlur stdDeviation="150" result="effect1_foregroundBlur_4409_139656"/>
</filter>
<filter id="filter4_f_4409_139656" x="830" y="4868" width="1377" height="1377" filterUnits="userSpaceOnUse" color-interpolation-filters="sRGB">
<feFlood flood-opacity="0" result="BackgroundImageFix"/>
<feBlend mode="normal" in="SourceGraphic" in2="BackgroundImageFix" result="shape"/>
<feGaussianBlur stdDeviation="150" result="effect1_foregroundBlur_4409_139656"/>
</filter>
<filter id="filter5_f_4409_139656" x="-493" y="3891" width="1377" height="1377" filterUnits="userSpaceOnUse" color-interpolation-filters="sRGB">
<feFlood flood-opacity="0" result="BackgroundImageFix"/>
<feBlend mode="normal" in="SourceGraphic" in2="BackgroundImageFix" result="shape"/>
<feGaussianBlur stdDeviation="150" result="effect1_foregroundBlur_4409_139656"/>
</filter>
<filter id="filter6_ddd_4409_139656" x="155.18" y="1395.18" width="181.64" height="181.64" filterUnits="userSpaceOnUse" color-interpolation-filters="sRGB">
<feFlood flood-opacity="0" result="BackgroundImageFix"/>
<feColorMatrix in="SourceAlpha" type="matrix" values="0 0 0 0 0 0 0 0 0 0 0 0 0 0 0 0 0 0 127 0" result="hardAlpha"/>
<feOffset/>
<feGaussianBlur stdDeviation="5.985"/>
<feColorMatrix type="matrix" values="0 0 0 0 1 0 0 0 0 1 0 0 0 0 1 0 0 0 1 0"/>
<feBlend mode="normal" in2="BackgroundImageFix" result="effect1_dropShadow_4409_139656"/>
<feColorMatrix in="SourceAlpha" type="matrix" values="0 0 0 0 0 0 0 0 0 0 0 0 0 0 0 0 0 0 127 0" result="hardAlpha"/>
<feOffset/>
<feGaussianBlur stdDeviation="20.52"/>
<feColorMatrix type="matrix" values="0 0 0 0 1 0 0 0 0 1 0 0 0 0 1 0 0 0 1 0"/>
<feBlend mode="normal" in2="effect1_dropShadow_4409_139656" result="effect2_dropShadow_4409_139656"/>
<feColorMatrix in="SourceAlpha" type="matrix" values="0 0 0 0 0 0 0 0 0 0 0 0 0 0 0 0 0 0 127 0" result="hardAlpha"/>
<feOffset/>
<feGaussianBlur stdDeviation="35.91"/>
<feColorMatrix type="matrix" values="0 0 0 0 1 0 0 0 0 1 0 0 0 0 1 0 0 0 0.61 0"/>
<feBlend mode="normal" in2="effect2_dropShadow_4409_139656" result="effect3_dropShadow_4409_139656"/>
<feBlend mode="normal" in="SourceGraphic" in2="effect3_dropShadow_4409_139656" result="shape"/>
</filter>
<filter id="filter7_ddd_4409_139656" x="1212.18" y="1150.18" width="181.64" height="181.64" filterUnits="userSpaceOnUse" color-interpolation-filters="sRGB">
<feFlood flood-opacity="0" result="BackgroundImageFix"/>
<feColorMatrix in="SourceAlpha" type="matrix" values="0 0 0 0 0 0 0 0 0 0 0 0 0 0 0 0 0 0 127 0" result="hardAlpha"/>
<feOffset/>
<feGaussianBlur stdDeviation="5.985"/>
<feColorMatrix type="matrix" values="0 0 0 0 1 0 0 0 0 1 0 0 0 0 1 0 0 0 1 0"/>
<feBlend mode="normal" in2="BackgroundImageFix" result="effect1_dropShadow_4409_139656"/>
<feColorMatrix in="SourceAlpha" type="matrix" values="0 0 0 0 0 0 0 0 0 0 0 0 0 0 0 0 0 0 127 0" result="hardAlpha"/>
<feOffset/>
<feGaussianBlur stdDeviation="20.52"/>
<feColorMatrix type="matrix" values="0 0 0 0 1 0 0 0 0 1 0 0 0 0 1 0 0 0 1 0"/>
<feBlend mode="normal" in2="effect1_dropShadow_4409_139656" result="effect2_dropShadow_4409_139656"/>
<feColorMatrix in="SourceAlpha" type="matrix" values="0 0 0 0 0 0 0 0 0 0 0 0 0 0 0 0 0 0 127 0" result="hardAlpha"/>
<feOffset/>
<feGaussianBlur stdDeviation="35.91"/>
<feColorMatrix type="matrix" values="0 0 0 0 1 0 0 0 0 1 0 0 0 0 1 0 0 0 0.61 0"/>
<feBlend mode="normal" in2="effect2_dropShadow_4409_139656" result="effect3_dropShadow_4409_139656"/>
<feBlend mode="normal" in="SourceGraphic" in2="effect3_dropShadow_4409_139656" result="shape"/>
</filter>
<filter id="filter8_ddd_4409_139656" x="1209.18" y="1769.18" width="181.64" height="181.64" filterUnits="userSpaceOnUse" color-interpolation-filters="sRGB">
<feFlood flood-opacity="0" result="BackgroundImageFix"/>
<feColorMatrix in="SourceAlpha" type="matrix" values="0 0 0 0 0 0 0 0 0 0 0 0 0 0 0 0 0 0 127 0" result="hardAlpha"/>
<feOffset/>
<feGaussianBlur stdDeviation="5.985"/>
<feColorMatrix type="matrix" values="0 0 0 0 1 0 0 0 0 1 0 0 0 0 1 0 0 0 1 0"/>
<feBlend mode="normal" in2="BackgroundImageFix" result="effect1_dropShadow_4409_139656"/>
<feColorMatrix in="SourceAlpha" type="matrix" values="0 0 0 0 0 0 0 0 0 0 0 0 0 0 0 0 0 0 127 0" result="hardAlpha"/>
<feOffset/>
<feGaussianBlur stdDeviation="20.52"/>
<feColorMatrix type="matrix" values="0 0 0 0 1 0 0 0 0 1 0 0 0 0 1 0 0 0 1 0"/>
<feBlend mode="normal" in2="effect1_dropShadow_4409_139656" result="effect2_dropShadow_4409_139656"/>
<feColorMatrix in="SourceAlpha" type="matrix" values="0 0 0 0 0 0 0 0 0 0 0 0 0 0 0 0 0 0 127 0" result="hardAlpha"/>
<feOffset/>
<feGaussianBlur stdDeviation="35.91"/>
<feColorMatrix type="matrix" values="0 0 0 0 1 0 0 0 0 1 0 0 0 0 1 0 0 0 0.61 0"/>
<feBlend mode="normal" in2="effect2_dropShadow_4409_139656" result="effect3_dropShadow_4409_139656"/>
<feBlend mode="normal" in="SourceGraphic" in2="effect3_dropShadow_4409_139656" result="shape"/>
</filter>
<filter id="filter9_f_4409_139656" x="914" y="1390" width="1107" height="1107" filterUnits="userSpaceOnUse" color-interpolation-filters="sRGB">
<feFlood flood-opacity="0" result="BackgroundImageFix"/>
<feBlend mode="normal" in="SourceGraphic" in2="BackgroundImageFix" result="shape"/>
<feGaussianBlur stdDeviation="150" result="effect1_foregroundBlur_4409_139656"/>
</filter>
<filter id="filter10_f_4409_139656" x="681" y="6487" width="1466" height="1466" filterUnits="userSpaceOnUse" color-interpolation-filters="sRGB">
<feFlood flood-opacity="0" result="BackgroundImageFix"/>
<feBlend mode="normal" in="SourceGraphic" in2="BackgroundImageFix" result="shape"/>
<feGaussianBlur stdDeviation="150" result="effect1_foregroundBlur_4409_139656"/>
</filter>
<linearGradient id="paint0_linear_4409_139656" x1="-1944.5" y1="-5780.28" x2="2435.13" y2="-5572.63" gradientUnits="userSpaceOnUse">
<stop stop-color="#04F8FC" stop-opacity="0"/>
<stop offset="0.632928"/>
</linearGradient>
<linearGradient id="paint1_linear_4409_139656" x1="185.187" y1="2115.95" x2="1486.78" y2="3379.92" gradientUnits="userSpaceOnUse">
<stop offset="0.0999468" stop-color="#FFE88A" stop-opacity="0.5"/>
<stop offset="0.958738" stop-color="#00FFFF" stop-opacity="0"/>
</linearGradient>
<radialGradient id="paint2_radial_4409_139656" cx="0" cy="0" r="1" gradientUnits="userSpaceOnUse" gradientTransform="translate(1152.5 72.5) rotate(52.6404) scale(877.532 882.517)">
<stop offset="0.145234" stop-color="#FF3200"/>
<stop offset="0.932292" stop-color="#FF0000" stop-opacity="0"/>
</radialGradient>
<radialGradient id="paint3_radial_4409_139656" cx="0" cy="0" r="1" gradientUnits="userSpaceOnUse" gradientTransform="translate(1199.44 2964.5) rotate(52.6404) scale(710.335 714.37)">
<stop offset="0.145234" stop-color="#FF3200"/>
<stop offset="0.932292" stop-color="#FF0000" stop-opacity="0"/>
</radialGradient>
<radialGradient id="paint4_radial_4409_139656" cx="0" cy="0" r="1" gradientUnits="userSpaceOnUse" gradientTransform="translate(-11.5 5075.5) rotate(52.6404) scale(877.532 882.517)">
<stop offset="0.145234" stop-color="#FF3200"/>
<stop offset="0.932292" stop-color="#FF0000" stop-opacity="0"/>
</radialGradient>
<linearGradient id="paint5_linear_4409_139656" x1="1182.33" y1="5227.11" x2="2039.37" y2="5792.92" gradientUnits="userSpaceOnUse">
<stop offset="0.145234" stop-color="#FFE05E"/>
<stop offset="0.426283" stop-color="#FFCE00"/>
</linearGradient>
<linearGradient id="paint6_linear_4409_139656" x1="-140.666" y1="4250.11" x2="716.373" y2="4815.92" gradientUnits="userSpaceOnUse">
<stop offset="0.145234" stop-color="#FFE05E"/>
<stop offset="0.426283" stop-color="#FFCE00"/>
</linearGradient>
<linearGradient id="paint7_linear_4409_139656" x1="1248.15" y1="1728.57" x2="1807.37" y2="2097.77" gradientUnits="userSpaceOnUse">
<stop offset="0.145234" stop-color="#04F8FC"/>
<stop offset="0.426283" stop-color="#04F8FC"/>
</linearGradient>
<radialGradient id="paint8_radial_4409_139656" cx="0" cy="0" r="1" gradientUnits="userSpaceOnUse" gradientTransform="translate(1175.5 6839.5) rotate(52.6404) scale(877.532 882.517)">
<stop offset="0.145234" stop-color="#FF3200"/>
<stop offset="0.932292" stop-color="#FF0000" stop-opacity="0"/>
</radialGradient>
<clipPath id="clip0_4409_139656">
<rect width="1440" height="7238" fill="white"/>
</clipPath>
</defs>
</svg>
