<svg width="547" height="51" viewBox="0 0 547 51" fill="none" xmlns="http://www.w3.org/2000/svg">
<path d="M20.26 40.5918H0.88V0.391796H20.26C33.16 0.391796 41.32 7.8918 41.32 20.4918C41.32 33.0918 33.16 40.5918 20.26 40.5918ZM20.26 8.4918H9.88V32.4918H20.26C28.42 32.4918 31.72 30.1518 31.72 20.4918C31.72 10.8318 28.42 8.4918 20.26 8.4918ZM61.2442 41.1918C50.9842 41.1918 44.0842 35.0718 44.0842 25.5918C44.0842 15.9918 50.9842 9.93179 61.2442 9.93179C71.5042 9.93179 78.4042 15.9918 78.4042 25.5918C78.4042 35.0718 71.5042 41.1918 61.2442 41.1918ZM61.2442 33.2118C67.3042 33.2118 69.4642 30.8718 69.4642 25.5918C69.4642 20.3118 67.3042 17.8518 61.2442 17.8518C55.1242 17.8518 53.0242 20.3118 53.0242 25.5918C53.0242 30.8718 55.1242 33.2118 61.2442 33.2118ZM99.1197 40.5918H87.8997L79.6797 10.5318H88.9797L92.5197 24.2718L93.7797 33.6318H94.3797L96.7797 23.3718L101.34 10.5318H112.92L117.42 23.3718L119.82 33.6318H120.42L121.74 24.2718L125.22 10.5318H134.4L125.88 40.5918H114.66L109.5 26.1318L107.28 17.8518H106.62L104.34 26.1318L99.1197 40.5918ZM145.806 40.5918H136.806V10.5318H145.146V19.7718H145.686C146.466 14.7318 150.066 9.93179 157.926 9.93179C166.146 9.93179 170.046 15.2118 170.046 21.8718V40.5918H161.046V24.8718C161.046 20.0718 159.066 18.0318 153.546 18.0318C147.846 18.0318 145.806 20.3118 145.806 25.4118V40.5918ZM183.599 40.5918H174.599V0.391796H183.599V40.5918ZM204.33 41.1918C194.07 41.1918 187.17 35.0718 187.17 25.5918C187.17 15.9918 194.07 9.93179 204.33 9.93179C214.59 9.93179 221.49 15.9918 221.49 25.5918C221.49 35.0718 214.59 41.1918 204.33 41.1918ZM204.33 33.2118C210.39 33.2118 212.55 30.8718 212.55 25.5918C212.55 20.3118 210.39 17.8518 204.33 17.8518C198.21 17.8518 196.11 20.3118 196.11 25.5918C196.11 30.8718 198.21 33.2118 204.33 33.2118ZM234.406 41.1918C227.926 41.1918 224.026 38.1918 224.026 33.1518C224.026 28.7118 227.326 25.9518 233.746 25.2918L246.646 23.9718V22.8318C246.646 18.9318 244.906 17.8518 240.106 17.8518C235.546 17.8518 233.686 19.0518 233.686 22.4718V22.7118H224.626V22.5318C224.626 15.0918 230.866 9.93179 240.766 9.93179C250.786 9.93179 255.526 15.0918 255.526 22.9518V40.5918H247.126V33.6918H246.646C245.266 38.3718 241.066 41.1918 234.406 41.1918ZM233.086 32.5518C233.086 34.1718 234.346 34.8318 236.986 34.8318C243.106 34.8318 246.406 33.3918 246.646 29.1318L236.206 30.3318C234.046 30.5118 233.086 31.1118 233.086 32.5518ZM273.527 41.1918C264.168 41.1918 259.008 35.0718 259.008 25.5918C259.008 15.9918 264.108 9.93179 273.048 9.93179C280.188 9.93179 283.848 13.4718 284.868 18.5118H285.408V0.391796H294.408V40.5918H286.008V32.2518H285.528C284.388 38.1918 280.428 41.1918 273.527 41.1918ZM268.128 25.5918C268.128 31.0518 270.828 32.9718 276.588 32.9718C282.288 32.9718 285.408 30.9918 285.408 25.7718V25.2918C285.408 20.0718 282.348 18.1518 276.588 18.1518C270.828 18.1518 268.128 20.0718 268.128 25.5918ZM324.447 41.1918C314.187 41.1918 307.287 35.0718 307.287 25.5918C307.287 15.9918 314.187 9.93179 324.447 9.93179C334.707 9.93179 341.607 15.9918 341.607 25.5918C341.607 35.0718 334.707 41.1918 324.447 41.1918ZM324.447 33.2118C330.507 33.2118 332.667 30.8718 332.667 25.5918C332.667 20.3118 330.507 17.8518 324.447 17.8518C318.327 17.8518 316.227 20.3118 316.227 25.5918C316.227 30.8718 318.327 33.2118 324.447 33.2118ZM357.703 41.1918C349.243 41.1918 345.223 35.9718 345.223 29.2518V10.5318H354.223V26.2518C354.223 31.1118 356.263 33.1518 361.963 33.1518C367.843 33.1518 369.943 30.8718 369.943 25.7718V10.5318H378.943V40.5918H370.543V31.4118H370.063C369.283 36.4518 365.623 41.1918 357.703 41.1918ZM392.545 40.5918H383.545V10.5318H391.885V18.5118H392.425C393.265 13.6518 396.445 9.93179 402.505 9.93179C409.225 9.93179 411.985 14.5518 411.985 20.4318V25.4118H402.985V22.2918C402.985 18.9918 401.665 17.5518 398.005 17.5518C393.985 17.5518 392.545 19.4118 392.545 23.1918V40.5918Z" fill="#F9F9F9"/>
<path d="M431.882 40.5918H421.802L439.382 0.391796H452.222L469.922 40.5918H459.602L455.822 31.7118H435.722L431.882 40.5918ZM442.982 14.8518L439.202 23.6118H452.342L448.562 14.8518L446.102 8.61179H445.442L442.982 14.8518ZM481.021 50.7918H472.021V10.5318H480.361V18.7518H480.961C482.041 12.9918 485.881 9.93179 492.961 9.93179C502.201 9.93179 507.361 16.0518 507.361 25.5918C507.361 35.1318 502.321 41.1918 493.261 41.1918C486.301 41.1918 482.461 37.7718 481.441 32.4918H481.021V50.7918ZM481.021 26.0118C481.021 31.1718 484.141 32.9718 489.781 32.9718C495.541 32.9718 498.241 31.0518 498.241 25.5918C498.241 20.0718 495.541 18.2118 489.841 18.2118C484.021 18.2118 481.021 20.1918 481.021 25.5318V26.0118ZM520.103 50.7918H511.103V10.5318H519.443V18.7518H520.043C521.123 12.9918 524.963 9.93179 532.043 9.93179C541.283 9.93179 546.443 16.0518 546.443 25.5918C546.443 35.1318 541.403 41.1918 532.343 41.1918C525.383 41.1918 521.543 37.7718 520.523 32.4918H520.103V50.7918ZM520.103 26.0118C520.103 31.1718 523.223 32.9718 528.863 32.9718C534.623 32.9718 537.323 31.0518 537.323 25.5918C537.323 20.0718 534.623 18.2118 528.923 18.2118C523.103 18.2118 520.103 20.1918 520.103 25.5318V26.0118Z" fill="url(#paint0_radial_3871_87033)"/>
<defs>
<radialGradient id="paint0_radial_3871_87033" cx="0" cy="0" r="1" gradientUnits="userSpaceOnUse" gradientTransform="translate(270.656 -1.79111) rotate(87.7768) scale(60.4284 315.38)">
<stop stop-color="#75FBFD"/>
<stop offset="1" stop-color="#ABFDFE"/>
</radialGradient>
</defs>
</svg>
