<svg xmlns="http://www.w3.org/2000/svg" width="85" height="84" viewBox="0 0 85 84" fill="none">
  <path d="M73.5507 63.0008L70.0503 66.83C68.1939 68.8603 65.6763 70.0008 63.0512 70.0008C60.4262 70.0008 57.9086 68.8603 56.0521 66.83C54.193 64.8037 51.6757 63.666 49.0514 63.666C46.4271 63.666 43.9098 64.8037 42.0507 66.83M10.5508 70.0008H16.4117C18.1238 70.0008 18.9799 70.0008 19.7855 69.8074C20.4998 69.6359 21.1826 69.3531 21.8089 68.9693C22.5153 68.5364 23.1206 67.931 24.3313 66.7204L68.3009 22.7508C71.2004 19.8513 71.2004 15.1503 68.3009 12.2508C65.4014 9.3513 60.7004 9.3513 57.8009 12.2508L13.8312 56.2204C12.6205 57.431 12.0152 58.0364 11.5823 58.7428C11.1985 59.3691 10.9157 60.0519 10.7442 60.7662C10.5508 61.5718 10.5508 62.4278 10.5508 64.14V70.0008Z" stroke="url(#paint0_linear_3871_84384)" stroke-width="4" stroke-linecap="round" stroke-linejoin="round"/>
  <defs>
    <linearGradient id="paint0_linear_3871_84384" x1="11.6066" y1="16.568" x2="74.1778" y2="17.3127" gradientUnits="userSpaceOnUse">
      <stop stop-color="#FFCE00"/>
      <stop offset="1" stop-color="#04F8FC"/>
    </linearGradient>
  </defs>
</svg>