<svg xmlns="http://www.w3.org/2000/svg" width="125" height="26" viewBox="0 0 125 26" fill="none">
  <path d="M40.2043 7.54545C36.7913 7.54545 33.9714 10.1902 33.9714 13.8164C33.9714 17.4129 36.7617 20.0873 40.2046 20.0873C43.6472 20.0873 46.4372 17.4426 46.4372 13.8164C46.4372 10.1902 43.6472 7.54545 40.2043 7.54545ZM40.2043 17.5919C38.334 17.5919 36.7026 16.0162 36.7026 13.7884C36.7026 11.5296 38.3353 9.98483 40.2043 9.98483C42.0733 9.98483 43.7061 11.5296 43.7061 13.7884C43.7061 16.0162 42.0733 17.5919 40.2043 17.5919ZM26.6404 7.54545C23.1975 7.54545 20.4071 10.1902 20.4071 13.8164C20.4071 17.4129 23.1975 20.0873 26.6404 20.0873C30.0829 20.0873 32.8733 17.4426 32.8733 13.8164C32.8733 10.1902 30.0829 7.54545 26.64 7.54545H26.6404ZM26.6404 17.5919C24.7697 17.5919 23.1386 16.0162 23.1386 13.7884C23.1386 11.5296 24.7714 9.98483 26.6404 9.98483C28.5107 9.98483 30.1421 11.5296 30.1421 13.7884C30.1421 16.0162 28.5386 17.5919 26.6404 17.5919ZM10.5236 9.47749V12.1222H16.8154C16.6366 13.6081 16.1336 14.7077 15.391 15.4513C14.4713 16.3722 13.0465 17.3833 10.5236 17.3833C6.63486 17.3833 3.63816 14.2332 3.63816 10.3395C3.63816 6.44584 6.63649 3.23619 10.5236 3.23619C12.6302 3.23619 14.145 4.06862 15.2727 5.13894L17.1417 3.2658C15.5681 1.75063 13.4615 0.591797 10.5236 0.591797C5.21012 0.591797 0.757812 4.95996 0.757812 10.2803C0.757812 15.601 5.21012 19.9692 10.5236 19.9692C13.4024 19.9692 15.5401 19.0186 17.2613 17.2343C19.0123 15.4809 19.5466 13.0135 19.5466 11.0226C19.5466 10.3988 19.4877 9.83383 19.3977 9.35806L10.5236 9.47749ZM76.4741 11.528C75.9691 10.1309 74.3672 7.54545 71.1606 7.54545C67.9542 7.54545 65.3131 10.072 65.3131 13.8164C65.3131 17.3228 67.9542 20.0873 71.4576 20.0873C74.3068 20.0873 75.9395 18.3339 76.6216 17.3228L74.5151 15.8965C73.8021 16.9372 72.8528 17.6199 71.4576 17.6199C70.0624 17.6199 69.0836 16.9961 68.4593 15.7175L76.7399 12.2407L76.4741 11.528ZM68.0443 13.639C67.9854 11.2309 69.9149 9.9832 71.2789 9.9832C72.3773 9.9832 73.2678 10.5182 73.5937 11.321L68.0443 13.639ZM61.3067 19.6717H64.0378V1.30415H61.3067V19.6717ZM56.8556 8.9425H56.7669C56.1439 8.1989 54.9866 7.54545 53.5015 7.54545C50.3848 7.54545 47.5653 10.3099 47.5653 13.8164C47.5653 17.3228 50.4144 20.058 53.5015 20.058C54.985 20.058 56.1426 19.4042 56.7669 18.631H56.8556V19.5227C56.8556 21.9308 55.5784 23.2078 53.531 23.2078C51.8687 23.2078 50.8294 21.9897 50.4144 20.9786L48.0407 21.9897C48.7225 23.6542 50.534 25.7047 53.531 25.7047C56.736 25.7047 59.4377 23.8023 59.4377 19.1959V7.9314H56.8556V8.9425ZM53.739 17.5919C51.8687 17.5919 50.2964 16.0162 50.2964 13.818C50.2964 11.6198 51.87 10.0141 53.739 10.0141C55.5801 10.0141 57.0636 11.6198 57.0636 13.818C57.0623 15.9866 55.5784 17.5919 53.739 17.5919ZM89.207 1.30447H82.6774V19.6717H85.4086V12.7164H89.207C92.2349 12.7164 95.2024 10.5166 95.2024 7.01045C95.2024 3.50401 92.2349 1.30415 89.207 1.30415V1.30447ZM89.2954 10.1622H85.4366V3.86003H89.2954C91.3136 3.86003 92.5008 5.55418 92.5008 7.01013C92.4725 8.43679 91.3152 10.1622 89.2954 10.1622ZM106.096 7.51584C104.137 7.51584 102.089 8.37788 101.258 10.3395L103.663 11.3506C104.197 10.3395 105.147 10.0128 106.156 10.0128C107.581 10.0128 109.006 10.8745 109.035 12.3897V12.5687C108.53 12.2716 107.492 11.8547 106.186 11.8547C103.574 11.8547 100.932 13.311 100.932 15.9866C100.932 18.4537 103.069 20.0284 105.443 20.0284C107.284 20.0284 108.293 19.1959 108.916 18.2158H109.004V19.6424H111.645V12.598C111.616 9.35904 109.212 7.51551 106.096 7.51551V7.51584ZM105.77 17.5623C104.879 17.5623 103.632 17.1158 103.632 16.0175C103.632 14.5909 105.175 14.0559 106.511 14.0559C107.697 14.0559 108.262 14.3234 109.004 14.6797C108.796 16.3739 107.342 17.5623 105.77 17.5623ZM121.173 7.93303L118.057 15.8682H117.968L114.734 7.93271H111.796L116.663 19.0479L113.902 25.2599H116.751L124.201 7.93271H121.173L121.173 7.93303ZM96.7168 19.6717H99.448V1.30415H96.7168V19.6717Z" fill="#1A1C22"/>
</svg>