<svg xmlns="http://www.w3.org/2000/svg" width="17" height="17" viewBox="0 0 17 17" fill="none">
  <path d="M8.46945 0.591797C6.29681 0.591797 6.02414 0.601297 5.1708 0.640127C4.31912 0.679127 3.73778 0.813967 3.22911 1.0118C2.70294 1.21613 2.2566 1.48947 1.81193 1.9343C1.36693 2.37897 1.09359 2.8253 0.88859 3.3513C0.69025 3.86013 0.55525 4.44163 0.51692 5.29297C0.47875 6.1463 0.46875 6.41913 0.46875 8.5918C0.46875 10.7645 0.47842 11.0363 0.51708 11.8896C0.55625 12.7413 0.69109 13.3226 0.88875 13.8313C1.09326 14.3575 1.36659 14.8038 1.81143 15.2485C2.25594 15.6935 2.70227 15.9675 3.22811 16.1718C3.73712 16.3696 4.31862 16.5045 5.17013 16.5435C6.02347 16.5823 6.29598 16.5918 8.46855 16.5918C10.6413 16.5918 10.9131 16.5823 11.7666 16.5435C12.6182 16.5045 13.2002 16.3696 13.7092 16.1718C14.2352 15.9675 14.6809 15.6935 15.1255 15.2485C15.5704 14.8038 15.8438 14.3575 16.0487 13.8315C16.2455 13.3226 16.3805 12.7411 16.4205 11.8898C16.4587 11.0365 16.4688 10.7645 16.4688 8.5918C16.4688 6.41913 16.4587 6.14647 16.4205 5.29313C16.3805 4.44147 16.2455 3.86013 16.0487 3.35147C15.8438 2.8253 15.5704 2.37897 15.1255 1.9343C14.6804 1.4893 14.2353 1.21597 13.7087 1.0118C13.1987 0.813967 12.6171 0.679127 11.7654 0.640127C10.9121 0.601297 10.6404 0.591797 8.46695 0.591797H8.46945ZM7.75185 2.03347C7.96485 2.03313 8.20245 2.03347 8.46945 2.03347C10.6055 2.03347 10.8586 2.04113 11.7022 2.07947C12.4822 2.11513 12.9056 2.24547 13.1875 2.35497C13.5608 2.49997 13.827 2.6733 14.1068 2.9533C14.3868 3.2333 14.5602 3.49997 14.7055 3.8733C14.815 4.15497 14.9456 4.5783 14.9811 5.3583C15.0195 6.20163 15.0278 6.45497 15.0278 8.59C15.0278 10.725 15.0195 10.9783 14.9811 11.8216C14.9455 12.6016 14.815 13.025 14.7055 13.3066C14.5605 13.68 14.3868 13.9458 14.1068 14.2256C13.8268 14.5056 13.561 14.679 13.1875 14.824C12.9058 14.934 12.4822 15.064 11.7022 15.0996C10.8588 15.138 10.6055 15.1463 8.46945 15.1463C6.33331 15.1463 6.08014 15.138 5.2368 15.0996C4.45679 15.0636 4.03345 14.9333 3.75128 14.8238C3.37795 14.6788 3.11128 14.5055 2.83127 14.2255C2.55127 13.9455 2.37794 13.6795 2.2326 13.306C2.1231 13.0243 1.9926 12.601 1.9571 11.821C1.91877 10.9776 1.9111 10.7243 1.9111 8.588C1.9111 6.45163 1.91877 6.19963 1.9571 5.3563C1.99277 4.5763 2.1231 4.15297 2.2326 3.87097C2.3776 3.49763 2.55127 3.23097 2.83127 2.95097C3.11128 2.67097 3.37795 2.49763 3.75128 2.3523C4.03329 2.2423 4.45679 2.1123 5.2368 2.07647C5.97481 2.04313 6.26081 2.03313 7.75185 2.03147V2.03347ZM12.7398 3.3618C12.2098 3.3618 11.7799 3.7913 11.7799 4.32147C11.7799 4.85147 12.2098 5.28147 12.7398 5.28147C13.2698 5.28147 13.6999 4.85147 13.6999 4.32147C13.6999 3.79147 13.2698 3.3618 12.7398 3.3618ZM8.46945 4.48347C6.20064 4.48347 4.36112 6.32297 4.36112 8.5918C4.36112 10.8606 6.20064 12.6993 8.46945 12.6993C10.7383 12.6993 12.5772 10.8606 12.5772 8.5918C12.5772 6.32297 10.7382 4.48347 8.46945 4.48347ZM8.46945 5.92513C9.94215 5.92513 11.1362 7.119 11.1362 8.5918C11.1362 10.0645 9.94215 11.2585 8.46945 11.2585C6.99665 11.2585 5.80281 10.0645 5.80281 8.5918C5.80281 7.119 6.99665 5.92513 8.46945 5.92513Z" fill="#928C97"/>
</svg>