<svg xmlns="http://www.w3.org/2000/svg" width="18" height="18" viewBox="0 0 18 18" fill="none">
  <path d="M16.1875 0.0605469H1.75C1.4019 0.0605469 1.06806 0.198827 0.82192 0.444967C0.57578 0.691107 0.4375 1.02495 0.4375 1.37305V15.8106C0.4375 16.1586 0.57578 16.4925 0.82192 16.7386C1.06806 16.9848 1.4019 17.123 1.75 17.123H16.1875C16.5355 17.123 16.8694 16.9848 17.1155 16.7386C17.3617 16.4925 17.5 16.1586 17.5 15.8106V1.37305C17.5 1.02495 17.3617 0.691107 17.1155 0.444967C16.8694 0.198827 16.5355 0.0605469 16.1875 0.0605469ZM16.1875 15.8106H1.75V1.37305H16.1875V15.8106ZM6.34375 7.2793V12.5293C6.34375 12.7033 6.27461 12.8703 6.15154 12.9933C6.02847 13.1164 5.86155 13.1856 5.6875 13.1856C5.51345 13.1856 5.34653 13.1164 5.22346 12.9933C5.10039 12.8703 5.03125 12.7033 5.03125 12.5293V7.2793C5.03125 7.10525 5.10039 6.93833 5.22346 6.81526C5.34653 6.69219 5.51345 6.62305 5.6875 6.62305C5.86155 6.62305 6.02847 6.69219 6.15154 6.81526C6.27461 6.93833 6.34375 7.10525 6.34375 7.2793ZM13.5625 9.5762V12.5293C13.5625 12.7033 13.4934 12.8703 13.3702 12.9933C13.2472 13.1164 13.0802 13.1856 12.9062 13.1856C12.7323 13.1856 12.5653 13.1164 12.4423 12.9933C12.3191 12.8703 12.25 12.7033 12.25 12.5293V9.5762C12.25 9.1411 12.0772 8.7238 11.7695 8.4161C11.4618 8.1084 11.0444 7.93555 10.6094 7.93555C10.1743 7.93555 9.75695 8.1084 9.44925 8.4161C9.14165 8.7238 8.96875 9.1411 8.96875 9.5762V12.5293C8.96875 12.7033 8.89965 12.8703 8.77655 12.9933C8.65345 13.1164 8.48655 13.1856 8.3125 13.1856C8.13845 13.1856 7.97153 13.1164 7.84846 12.9933C7.72539 12.8703 7.65625 12.7033 7.65625 12.5293V7.2793C7.65706 7.11856 7.71685 6.9637 7.82426 6.84411C7.93167 6.72452 8.07924 6.64851 8.23898 6.6305C8.39871 6.6125 8.55955 6.65374 8.69085 6.74642C8.82215 6.8391 8.91495 6.97676 8.95155 7.13328C9.39545 6.83213 9.91305 6.65758 10.4487 6.6284C10.9843 6.59921 11.5178 6.71649 11.9918 6.96763C12.466 7.21877 12.8626 7.5943 13.1393 8.05387C13.416 8.5135 13.5623 9.0397 13.5625 9.5762ZM6.67187 4.98242C6.67187 5.17712 6.61414 5.36743 6.50598 5.52931C6.39781 5.69119 6.24408 5.81736 6.0642 5.89187C5.88433 5.96637 5.68641 5.98587 5.49546 5.94789C5.30451 5.9099 5.12911 5.81615 4.99144 5.67848C4.85377 5.54082 4.76002 5.36542 4.72204 5.17447C4.68406 4.98352 4.70355 4.78559 4.77806 4.60572C4.85256 4.42585 4.97873 4.27211 5.14061 4.16395C5.30249 4.05578 5.49281 3.99805 5.6875 3.99805C5.94857 3.99805 6.19895 4.10176 6.38356 4.28637C6.56816 4.47097 6.67187 4.72135 6.67187 4.98242Z" fill="#928C97"/>
</svg>