<svg width="50" height="12" viewBox="0 0 50 12" fill="none" xmlns="http://www.w3.org/2000/svg">
<path d="M9.52947 11.0527H0.745469V0.332734H3.14547V8.89273H9.52947V11.0527ZM16.0155 11.2127C12.4635 11.2127 10.2555 9.03673 10.2555 5.69273C10.2555 2.34873 12.4635 0.172734 16.0155 0.172734C19.6475 0.172734 21.8395 2.34873 21.8395 5.69273C21.8395 9.03673 19.6475 11.2127 16.0155 11.2127ZM16.0155 8.90873C18.3675 8.90873 19.2795 8.07673 19.2795 5.69273C19.2795 3.30873 18.3675 2.47673 16.0155 2.47673C13.6635 2.47673 12.7995 3.30873 12.7995 5.69273C12.7995 8.07673 13.6635 8.90873 16.0155 8.90873ZM27.9421 11.2127C24.6621 11.2127 22.6461 9.03673 22.6461 5.69273C22.6461 2.34873 24.9181 0.172734 28.5981 0.172734C31.9581 0.172734 34.0861 1.74073 34.0861 4.31673V4.44473H31.4141V4.31673C31.4141 3.06873 30.5981 2.47673 28.5341 2.47673C26.1021 2.47673 25.1901 3.30873 25.1901 5.69273C25.1901 8.07673 26.0701 8.90873 28.4221 8.90873C30.8861 8.90873 31.6381 8.52473 31.7021 7.16473H28.0701V5.38873H34.1021V11.0527H31.8781V8.74873H31.7501C31.3821 10.1567 30.2621 11.2127 27.9421 11.2127ZM37.6767 11.0527H35.2767V0.332734H37.6767V11.0527ZM41.333 11.0527H38.933V0.332734H41.493L45.333 5.40473L46.805 7.66073H46.981L46.869 5.50073V0.332734H49.269V11.0527H46.709L42.757 5.93273L41.397 3.91673H41.237L41.333 5.88473V11.0527Z" fill="url(#paint0_linear_3867_83867)"/>
<defs>
<linearGradient id="paint0_linear_3867_83867" x1="0.841895" y1="-3.34728" x2="50.481" y2="-2.17649" gradientUnits="userSpaceOnUse">
<stop stop-color="#FFCE00"/>
<stop offset="1" stop-color="#04F8FC"/>
</linearGradient>
</defs>
</svg>
