<svg xmlns="http://www.w3.org/2000/svg" width="85" height="84" viewBox="0 0 85 84" fill="none">
  <path d="M32.1055 42L39.1055 49L54.8555 33.25M26.2737 13.3654C29.0871 13.1409 31.758 12.0346 33.9061 10.204C38.919 5.93201 46.2919 5.93201 51.3048 10.204C53.453 12.0346 56.1239 13.1409 58.9373 13.3654C65.5027 13.8894 70.7161 19.1028 71.24 25.6682C71.4645 28.4816 72.5709 31.1525 74.4015 33.3006C78.6735 38.3135 78.6735 45.6865 74.4015 50.6994C72.5709 52.8475 71.4645 55.5184 71.24 58.3318C70.7161 64.8972 65.5027 70.1106 58.9373 70.6346C56.1239 70.8591 53.453 71.9654 51.3048 73.796C46.2919 78.068 38.919 78.068 33.9061 73.796C31.758 71.9654 29.0871 70.8591 26.2737 70.6346C19.7083 70.1106 14.4948 64.8972 13.9709 58.3318C13.7464 55.5184 12.6401 52.8475 10.8094 50.6994C6.53748 45.6865 6.53748 38.3135 10.8094 33.3006C12.6401 31.1525 13.7464 28.4816 13.9709 25.6682C14.4948 19.1028 19.7083 13.8894 26.2737 13.3654Z" stroke="url(#paint0_linear_3871_84396)" stroke-width="4" stroke-linecap="round" stroke-linejoin="round"/>
  <defs>
    <linearGradient id="paint0_linear_3871_84396" x1="8.77865" y1="14.5833" x2="78.3032" y2="15.3704" gradientUnits="userSpaceOnUse">
      <stop stop-color="#FFCE00"/>
      <stop offset="1" stop-color="#04F8FC"/>
    </linearGradient>
  </defs>
</svg>