<svg width="191" height="448" viewBox="0 0 191 448" fill="none" xmlns="http://www.w3.org/2000/svg">
<g opacity="0.4" filter="url(#filter0_f_5226_116724)">
<path d="M50.0004 95.5594C50.0004 120.595 70.3031 140.89 95.3478 140.89C120.393 140.89 140.695 120.595 140.695 95.5594C140.695 70.5238 120.393 50.2285 95.3478 50.2285C70.3031 50.2285 50.0004 70.5238 50.0004 95.5594Z" fill="white" fill-opacity="0.4"/>
</g>
<path d="M130.184 135.183C112.409 152.964 83.5858 152.97 65.8047 135.195C48.0235 117.42 48.0183 88.5967 65.7929 70.8156C83.5675 53.0345 112.391 53.0292 130.172 70.8038C147.953 88.5785 147.959 117.402 130.184 135.183Z" fill="url(#paint0_radial_5226_116724)" fill-opacity="0.15" stroke="url(#paint1_linear_5226_116724)" stroke-width="1.2"/>
<path d="M111.802 106.854V108.617C111.802 111.087 111.802 112.321 111.322 113.264C110.9 114.094 110.225 114.768 109.396 115.191C108.453 115.671 107.219 115.671 104.751 115.671H92.4108C89.9426 115.671 88.7085 115.671 87.7657 115.191C86.9365 114.768 86.2623 114.094 85.8397 113.264C85.3594 112.321 85.3594 111.087 85.3594 108.617V106.854M105.926 96.5667L98.5809 89.2188M98.5809 89.2188L91.2356 96.5667M98.5809 89.2188V106.854" stroke="url(#paint2_linear_5226_116724)" stroke-width="2" stroke-linecap="round" stroke-linejoin="round"/>
<g opacity="0.4" filter="url(#filter1_f_5226_116724)">
<path d="M50.8582 225.121C50.8582 249.926 70.9741 270.035 95.7884 270.035C120.603 270.035 140.719 249.926 140.719 225.121C140.719 200.316 120.603 180.207 95.7885 180.207C70.9741 180.207 50.8582 200.316 50.8582 225.121Z" fill="white" fill-opacity="0.4"/>
</g>
<path d="M128.856 265.51C110.348 284.024 80.3362 284.03 61.822 265.522C43.3078 247.015 43.3023 217.003 61.8097 198.489C80.3172 179.974 110.329 179.969 128.843 198.476C147.358 216.984 147.363 246.996 128.856 265.51Z" fill="url(#paint3_radial_5226_116724)" fill-opacity="0.15" stroke="url(#paint4_linear_5226_116724)" stroke-width="1.2"/>
<path d="M108.317 242.321L106.861 243.914C106.089 244.758 105.042 245.233 103.95 245.233C102.859 245.233 101.812 244.758 101.04 243.914C100.267 243.071 99.2198 242.597 98.1284 242.597C97.037 242.597 95.9902 243.071 95.217 243.914M82.1172 245.233H84.5546C85.2666 245.233 85.6226 245.233 85.9576 245.152C86.2547 245.081 86.5386 244.963 86.7991 244.804C87.0929 244.623 87.3446 244.372 87.8481 243.868L106.134 225.576C107.339 224.369 107.339 222.414 106.134 221.207C104.928 220.001 102.973 220.001 101.767 221.207L83.4814 239.5C82.9779 240.003 82.7262 240.255 82.5462 240.549C82.3866 240.81 82.2689 241.094 82.1976 241.391C82.1172 241.726 82.1172 242.082 82.1172 242.794V245.233Z" stroke="url(#paint5_linear_5226_116724)" stroke-width="2" stroke-linecap="round" stroke-linejoin="round"/>
<g opacity="0.4" filter="url(#filter2_f_5226_116724)">
<path d="M50.3972 353.002C50.3972 377.807 70.5132 397.916 95.3275 397.916C120.142 397.916 140.258 377.807 140.258 353.002C140.258 328.197 120.142 308.088 95.3275 308.088C70.5132 308.088 50.3972 328.197 50.3972 353.002Z" fill="white" fill-opacity="0.4"/>
</g>
<path d="M128.856 394.51C110.348 413.024 80.3362 413.03 61.822 394.522C43.3077 376.015 43.3023 346.003 61.8097 327.489C80.3172 308.974 110.329 308.969 128.843 327.476C147.358 345.984 147.363 375.996 128.856 394.51Z" fill="url(#paint6_radial_5226_116724)" fill-opacity="0.15" stroke="url(#paint7_linear_5226_116724)" stroke-width="1.2"/>
<path d="M90.3138 361.612L93.2249 364.524L99.7748 357.971M87.8885 349.699C89.0585 349.606 90.1693 349.145 91.0626 348.384C93.1473 346.606 96.2135 346.606 98.2982 348.384C99.1916 349.145 100.302 349.606 101.472 349.699C104.203 349.917 106.371 352.086 106.589 354.817C106.682 355.988 107.142 357.099 107.903 357.992C109.68 360.078 109.68 363.145 107.903 365.231C107.142 366.124 106.682 367.235 106.589 368.406C106.371 371.137 104.203 373.306 101.472 373.524C100.302 373.618 99.1916 374.078 98.2982 374.839C96.2135 376.617 93.1473 376.617 91.0626 374.839C90.1693 374.078 89.0585 373.618 87.8885 373.524C85.1582 373.306 82.9901 371.137 82.7722 368.406C82.6788 367.235 82.2187 366.124 81.4574 365.231C79.6809 363.145 79.6809 360.078 81.4574 357.992C82.2187 357.099 82.6788 355.988 82.7722 354.817C82.9901 352.086 85.1582 349.917 87.8885 349.699Z" stroke="url(#paint8_linear_5226_116724)" stroke-width="2" stroke-linecap="round" stroke-linejoin="round"/>
<path d="M31.7812 106.933C34.1377 106.933 36.0479 105.022 36.0479 102.666C36.0479 100.31 34.1377 98.3993 31.7813 98.3993C29.4248 98.3993 27.5146 100.31 27.5146 102.666C27.5146 105.022 29.4248 106.933 31.7812 106.933ZM96.943 37.2005C60.5201 37.2005 30.9813 66.5057 30.9812 102.666L32.5813 102.666C32.5813 67.4009 61.3922 38.8005 96.943 38.8005L96.943 37.2005Z" fill="#FFE05E" fill-opacity="0.7"/>
<mask id="path-11-inside-1_5226_116724" fill="white">
<path d="M101.143 168.122L101.329 166.662C101.644 166.689 101.942 166.63 102.257 166.662C102.572 166.693 102.814 166.848 103.185 166.848C103.872 166.926 104.619 166.646 105.302 166.745C105.615 166.791 105.928 166.838 106.24 166.888C106.552 166.938 106.865 166.99 107.176 167.045L106.903 168.87L105.025 168.597C104.361 168.5 103.696 168.414 103.03 168.338L101.143 168.122Z"/>
<path d="M110.652 170L111.108 168.21C111.417 168.278 111.726 168.347 112.034 168.419C112.342 168.491 112.65 168.565 112.956 168.641C113.626 168.807 114.293 168.983 114.957 169.169C115.262 169.255 115.565 169.342 115.868 169.432C116.172 169.522 116.474 169.613 116.776 169.707L116.263 171.482L114.437 170.969C113.792 170.788 113.144 170.617 112.494 170.456L110.652 170Z"/>
<path d="M118.766 172.32L119.456 170.604C119.753 170.711 120.05 170.819 120.346 170.93C120.642 171.041 120.937 171.154 121.231 171.269C121.552 171.394 121.872 171.522 122.191 171.652C122.51 171.782 122.828 171.915 123.145 172.05C123.435 172.174 123.725 172.3 124.014 172.428C124.302 172.556 124.59 172.686 124.877 172.818L124.134 174.511L122.391 173.768C122.083 173.637 121.774 173.508 121.464 173.381C121.154 173.255 120.844 173.13 120.532 173.009L118.766 172.32Z"/>
<path d="M126.504 175.663L127.415 174.051C127.696 174.195 127.976 174.341 128.254 174.489C128.533 174.637 128.811 174.787 129.087 174.939C129.691 175.27 130.289 175.61 130.881 175.959C131.153 176.12 131.423 176.282 131.692 176.446C131.962 176.61 132.23 176.776 132.497 176.943L131.536 178.527L129.906 177.566C129.331 177.226 128.75 176.896 128.164 176.574L126.504 175.663Z"/>
<path d="M133.733 179.974L134.849 178.493C135.109 178.672 135.367 178.853 135.624 179.035C135.881 179.218 136.136 179.402 136.39 179.588C136.944 179.994 137.492 180.408 138.033 180.831C138.281 181.025 138.528 181.22 138.773 181.417C139.018 181.615 139.262 181.814 139.505 182.014L138.342 183.46L136.854 182.298C136.328 181.887 135.796 181.485 135.258 181.09L133.733 179.974Z"/>
<path d="M140.33 185.178L141.632 183.853C141.866 184.064 142.098 184.276 142.328 184.49C142.558 184.704 142.787 184.92 143.015 185.137C143.262 185.374 143.508 185.613 143.753 185.853C143.997 186.094 144.239 186.337 144.479 186.581C144.7 186.805 144.918 187.031 145.135 187.258C145.352 187.485 145.568 187.713 145.781 187.944L144.437 189.228L143.116 187.884C142.883 187.646 142.647 187.411 142.41 187.177C142.173 186.943 141.934 186.711 141.693 186.481L140.33 185.178Z"/>
<path d="M146.18 191.187L147.647 190.041C147.851 190.28 148.053 190.52 148.253 190.762C148.453 191.004 148.651 191.247 148.848 191.491C149.277 192.025 149.697 192.565 150.109 193.111C150.298 193.361 150.484 193.613 150.67 193.866C150.855 194.119 151.038 194.374 151.219 194.63L149.717 195.73L148.584 194.227C148.185 193.697 147.776 193.172 147.36 192.654L146.18 191.187Z"/>
<path d="M151.185 197.896L152.792 196.949C152.962 197.212 153.13 197.476 153.297 197.742C153.463 198.007 153.627 198.274 153.79 198.541C154.144 199.125 154.489 199.715 154.825 200.31C154.979 200.582 155.131 200.856 155.281 201.131C155.431 201.405 155.579 201.681 155.725 201.958L154.09 202.856L153.166 201.22C152.84 200.642 152.505 200.07 152.16 199.503L151.185 197.896Z"/>
<path d="M155.259 205.192L156.977 204.46C157.111 204.743 157.243 205.026 157.373 205.311C157.502 205.595 157.63 205.881 157.756 206.167C157.893 206.479 158.028 206.793 158.16 207.107C158.292 207.422 158.421 207.737 158.549 208.054C158.665 208.344 158.78 208.635 158.892 208.926C159.004 209.218 159.115 209.511 159.223 209.804L157.482 210.483L156.783 208.743C156.66 208.436 156.534 208.129 156.405 207.824C156.277 207.518 156.146 207.214 156.013 206.91L155.259 205.192Z"/>
<path d="M158.332 212.95L160.132 212.445C160.228 212.743 160.321 213.041 160.412 213.34C160.503 213.639 160.592 213.938 160.678 214.238C160.867 214.893 161.046 215.55 161.214 216.21C161.292 216.513 161.366 216.816 161.439 217.12C161.512 217.423 161.583 217.727 161.651 218.032L159.836 218.482L159.373 216.666C159.209 216.025 159.036 215.387 158.852 214.751L158.332 212.95Z"/>
<path d="M160.351 221.037L162.203 220.768C162.258 221.075 162.311 221.383 162.362 221.691C162.412 221.999 162.461 222.307 162.507 222.616C162.608 223.289 162.698 223.964 162.777 224.64C162.814 224.95 162.848 225.26 162.88 225.571C162.912 225.881 162.941 226.192 162.969 226.503L161.11 226.715L160.891 224.856C160.814 224.199 160.726 223.543 160.628 222.889L160.351 221.037Z"/>
<path d="M161.282 229.315L163.154 229.286C163.168 229.598 163.18 229.91 163.189 230.222C163.199 230.533 163.206 230.845 163.211 231.157C163.216 231.497 163.219 231.838 163.219 232.178C163.219 232.519 163.216 232.859 163.211 233.199C163.206 233.511 163.199 233.823 163.189 234.135C163.18 234.447 163.168 234.759 163.154 235.07L161.282 235.042L161.312 233.17C161.317 232.839 161.32 232.509 161.32 232.178C161.32 231.847 161.317 231.517 161.312 231.186L161.282 229.315Z"/>
<path d="M161.11 237.641L162.969 237.854C162.941 238.165 162.912 238.475 162.88 238.786C162.848 239.096 162.814 239.406 162.777 239.716C162.698 240.392 162.608 241.067 162.507 241.74C162.461 242.049 162.412 242.357 162.362 242.665C162.311 242.973 162.258 243.281 162.203 243.588L160.351 243.319L160.628 241.467C160.726 240.813 160.814 240.158 160.891 239.501L161.11 237.641Z"/>
<path d="M159.836 245.875L161.651 246.324C161.583 246.629 161.512 246.933 161.439 247.237C161.366 247.54 161.292 247.844 161.214 248.146C161.046 248.806 160.867 249.463 160.678 250.118C160.592 250.418 160.503 250.718 160.412 251.017C160.321 251.315 160.228 251.614 160.132 251.911L158.332 251.406L158.852 249.606C159.036 248.97 159.209 248.331 159.373 247.69L159.836 245.875Z"/>
<path d="M157.482 253.873L159.223 254.553C159.115 254.846 159.004 255.138 158.892 255.43C158.78 255.722 158.665 256.013 158.549 256.303C158.421 256.619 158.292 256.934 158.16 257.249C158.028 257.564 157.893 257.877 157.756 258.189C157.63 258.476 157.502 258.761 157.373 259.045C157.243 259.33 157.111 259.614 156.977 259.897L155.259 259.164L156.013 257.446C156.146 257.143 156.277 256.838 156.405 256.533C156.534 256.227 156.66 255.921 156.783 255.613L157.482 253.873Z"/>
<path d="M154.09 261.501L155.725 262.398C155.579 262.675 155.431 262.951 155.281 263.226C155.131 263.501 154.979 263.774 154.825 264.047C154.489 264.642 154.144 265.231 153.79 265.815C153.627 266.083 153.463 266.349 153.297 266.615C153.13 266.88 152.962 267.144 152.792 267.407L151.185 266.46L152.16 264.854C152.505 264.287 152.84 263.714 153.166 263.136L154.09 261.501Z"/>
<path d="M149.717 268.627L151.219 269.727C151.038 269.983 150.855 270.237 150.67 270.49C150.484 270.743 150.298 270.995 150.109 271.245C149.697 271.792 149.277 272.332 148.848 272.865C148.651 273.11 148.453 273.353 148.253 273.595C148.053 273.836 147.851 274.077 147.647 274.316L146.18 273.17L147.36 271.703C147.776 271.184 148.185 270.66 148.584 270.129L149.717 268.627Z"/>
<path d="M144.437 275.129L145.781 276.413C145.568 276.643 145.352 276.872 145.135 277.099C144.918 277.326 144.7 277.551 144.479 277.776C144.239 278.02 143.997 278.262 143.753 278.503C143.508 278.744 143.262 278.983 143.015 279.219C142.787 279.437 142.558 279.652 142.328 279.866C142.098 280.08 141.866 280.292 141.632 280.503L140.33 279.178L141.693 277.875C141.934 277.645 142.173 277.413 142.41 277.18C142.647 276.946 142.883 276.71 143.116 276.473L144.437 275.129Z"/>
<path d="M138.342 280.896L139.505 282.342C139.262 282.543 139.018 282.742 138.773 282.939C138.528 283.136 138.281 283.332 138.033 283.526C137.492 283.948 136.944 284.363 136.39 284.769C136.136 284.955 135.88 285.139 135.624 285.321C135.367 285.504 135.109 285.684 134.849 285.863L133.733 284.382L135.258 283.266C135.796 282.872 136.328 282.469 136.854 282.059L138.342 280.896Z"/>
<path d="M131.536 285.83L132.497 287.413C132.23 287.581 131.962 287.747 131.692 287.911C131.423 288.075 131.153 288.237 130.881 288.397C130.289 288.746 129.691 289.087 129.087 289.418C128.811 289.57 128.533 289.719 128.254 289.867C127.976 290.015 127.696 290.161 127.415 290.305L126.504 288.693L128.164 287.782C128.75 287.461 129.331 287.13 129.906 286.791L131.536 285.83Z"/>
<path d="M124.134 289.845L124.877 291.539C124.59 291.671 124.302 291.801 124.014 291.929C123.725 292.057 123.435 292.183 123.145 292.307C122.828 292.442 122.51 292.574 122.191 292.705C121.872 292.835 121.552 292.963 121.231 293.088C120.937 293.203 120.642 293.316 120.346 293.426C120.05 293.537 119.753 293.646 119.456 293.752L118.766 292.037L120.532 291.348C120.844 291.226 121.154 291.102 121.464 290.975C121.774 290.849 122.083 290.72 122.391 290.589L124.134 289.845Z"/>
<path d="M116.263 292.874L116.776 294.649C116.474 294.743 116.172 294.835 115.868 294.925C115.565 295.014 115.262 295.102 114.957 295.187C114.293 295.374 113.626 295.55 112.956 295.716C112.65 295.792 112.342 295.866 112.034 295.937C111.726 296.009 111.417 296.079 111.108 296.146L110.652 294.357L112.494 293.9C113.144 293.739 113.792 293.568 114.437 293.387L116.263 292.874Z"/>
<path d="M103.461 297.631C103.146 297.662 102.831 297.691 102.515 297.718L99.3565 296.207L104.186 295.67C104.853 295.594 105.518 295.508 106.181 295.411L108.06 295.138L108.333 296.963C108.021 297.018 107.709 297.07 107.396 297.12C107.084 297.17 106.771 297.218 106.458 297.263C105.775 297.362 105.091 297.451 104.405 297.53C104.09 297.565 103.776 297.599 103.461 297.631Z"/>
</mask>
<path d="M101.143 168.122L101.329 166.662C101.644 166.689 101.942 166.63 102.257 166.662C102.572 166.693 102.814 166.848 103.185 166.848C103.872 166.926 104.619 166.646 105.302 166.745C105.615 166.791 105.928 166.838 106.24 166.888C106.552 166.938 106.865 166.99 107.176 167.045L106.903 168.87L105.025 168.597C104.361 168.5 103.696 168.414 103.03 168.338L101.143 168.122Z" stroke="#FFE67E" stroke-opacity="0.7" stroke-width="6" stroke-miterlimit="10" mask="url(#path-11-inside-1_5226_116724)"/>
<path d="M110.652 170L111.108 168.21C111.417 168.278 111.726 168.347 112.034 168.419C112.342 168.491 112.65 168.565 112.956 168.641C113.626 168.807 114.293 168.983 114.957 169.169C115.262 169.255 115.565 169.342 115.868 169.432C116.172 169.522 116.474 169.613 116.776 169.707L116.263 171.482L114.437 170.969C113.792 170.788 113.144 170.617 112.494 170.456L110.652 170Z" stroke="#FFE67E" stroke-opacity="0.7" stroke-width="6" stroke-miterlimit="10" mask="url(#path-11-inside-1_5226_116724)"/>
<path d="M118.766 172.32L119.456 170.604C119.753 170.711 120.05 170.819 120.346 170.93C120.642 171.041 120.937 171.154 121.231 171.269C121.552 171.394 121.872 171.522 122.191 171.652C122.51 171.782 122.828 171.915 123.145 172.05C123.435 172.174 123.725 172.3 124.014 172.428C124.302 172.556 124.59 172.686 124.877 172.818L124.134 174.511L122.391 173.768C122.083 173.637 121.774 173.508 121.464 173.381C121.154 173.255 120.844 173.13 120.532 173.009L118.766 172.32Z" stroke="#FFE67E" stroke-opacity="0.7" stroke-width="6" stroke-miterlimit="10" mask="url(#path-11-inside-1_5226_116724)"/>
<path d="M126.504 175.663L127.415 174.051C127.696 174.195 127.976 174.341 128.254 174.489C128.533 174.637 128.811 174.787 129.087 174.939C129.691 175.27 130.289 175.61 130.881 175.959C131.153 176.12 131.423 176.282 131.692 176.446C131.962 176.61 132.23 176.776 132.497 176.943L131.536 178.527L129.906 177.566C129.331 177.226 128.75 176.896 128.164 176.574L126.504 175.663Z" stroke="#FFE67E" stroke-opacity="0.7" stroke-width="6" stroke-miterlimit="10" mask="url(#path-11-inside-1_5226_116724)"/>
<path d="M133.733 179.974L134.849 178.493C135.109 178.672 135.367 178.853 135.624 179.035C135.881 179.218 136.136 179.402 136.39 179.588C136.944 179.994 137.492 180.408 138.033 180.831C138.281 181.025 138.528 181.22 138.773 181.417C139.018 181.615 139.262 181.814 139.505 182.014L138.342 183.46L136.854 182.298C136.328 181.887 135.796 181.485 135.258 181.09L133.733 179.974Z" stroke="#FFE67E" stroke-opacity="0.7" stroke-width="6" stroke-miterlimit="10" mask="url(#path-11-inside-1_5226_116724)"/>
<path d="M140.33 185.178L141.632 183.853C141.866 184.064 142.098 184.276 142.328 184.49C142.558 184.704 142.787 184.92 143.015 185.137C143.262 185.374 143.508 185.613 143.753 185.853C143.997 186.094 144.239 186.337 144.479 186.581C144.7 186.805 144.918 187.031 145.135 187.258C145.352 187.485 145.568 187.713 145.781 187.944L144.437 189.228L143.116 187.884C142.883 187.646 142.647 187.411 142.41 187.177C142.173 186.943 141.934 186.711 141.693 186.481L140.33 185.178Z" stroke="#FFE67E" stroke-opacity="0.7" stroke-width="6" stroke-miterlimit="10" mask="url(#path-11-inside-1_5226_116724)"/>
<path d="M146.18 191.187L147.647 190.041C147.851 190.28 148.053 190.52 148.253 190.762C148.453 191.004 148.651 191.247 148.848 191.491C149.277 192.025 149.697 192.565 150.109 193.111C150.298 193.361 150.484 193.613 150.67 193.866C150.855 194.119 151.038 194.374 151.219 194.63L149.717 195.73L148.584 194.227C148.185 193.697 147.776 193.172 147.36 192.654L146.18 191.187Z" stroke="#FFE67E" stroke-opacity="0.7" stroke-width="6" stroke-miterlimit="10" mask="url(#path-11-inside-1_5226_116724)"/>
<path d="M151.185 197.896L152.792 196.949C152.962 197.212 153.13 197.476 153.297 197.742C153.463 198.007 153.627 198.274 153.79 198.541C154.144 199.125 154.489 199.715 154.825 200.31C154.979 200.582 155.131 200.856 155.281 201.131C155.431 201.405 155.579 201.681 155.725 201.958L154.09 202.856L153.166 201.22C152.84 200.642 152.505 200.07 152.16 199.503L151.185 197.896Z" stroke="#FFE67E" stroke-opacity="0.7" stroke-width="6" stroke-miterlimit="10" mask="url(#path-11-inside-1_5226_116724)"/>
<path d="M155.259 205.192L156.977 204.46C157.111 204.743 157.243 205.026 157.373 205.311C157.502 205.595 157.63 205.881 157.756 206.167C157.893 206.479 158.028 206.793 158.16 207.107C158.292 207.422 158.421 207.737 158.549 208.054C158.665 208.344 158.78 208.635 158.892 208.926C159.004 209.218 159.115 209.511 159.223 209.804L157.482 210.483L156.783 208.743C156.66 208.436 156.534 208.129 156.405 207.824C156.277 207.518 156.146 207.214 156.013 206.91L155.259 205.192Z" stroke="#FFE67E" stroke-opacity="0.7" stroke-width="6" stroke-miterlimit="10" mask="url(#path-11-inside-1_5226_116724)"/>
<path d="M158.332 212.95L160.132 212.445C160.228 212.743 160.321 213.041 160.412 213.34C160.503 213.639 160.592 213.938 160.678 214.238C160.867 214.893 161.046 215.55 161.214 216.21C161.292 216.513 161.366 216.816 161.439 217.12C161.512 217.423 161.583 217.727 161.651 218.032L159.836 218.482L159.373 216.666C159.209 216.025 159.036 215.387 158.852 214.751L158.332 212.95Z" stroke="#FFE67E" stroke-opacity="0.7" stroke-width="6" stroke-miterlimit="10" mask="url(#path-11-inside-1_5226_116724)"/>
<path d="M160.351 221.037L162.203 220.768C162.258 221.075 162.311 221.383 162.362 221.691C162.412 221.999 162.461 222.307 162.507 222.616C162.608 223.289 162.698 223.964 162.777 224.64C162.814 224.95 162.848 225.26 162.88 225.571C162.912 225.881 162.941 226.192 162.969 226.503L161.11 226.715L160.891 224.856C160.814 224.199 160.726 223.543 160.628 222.889L160.351 221.037Z" stroke="#FFE67E" stroke-opacity="0.7" stroke-width="6" stroke-miterlimit="10" mask="url(#path-11-inside-1_5226_116724)"/>
<path d="M161.282 229.315L163.154 229.286C163.168 229.598 163.18 229.91 163.189 230.222C163.199 230.533 163.206 230.845 163.211 231.157C163.216 231.497 163.219 231.838 163.219 232.178C163.219 232.519 163.216 232.859 163.211 233.199C163.206 233.511 163.199 233.823 163.189 234.135C163.18 234.447 163.168 234.759 163.154 235.07L161.282 235.042L161.312 233.17C161.317 232.839 161.32 232.509 161.32 232.178C161.32 231.847 161.317 231.517 161.312 231.186L161.282 229.315Z" stroke="#FFE67E" stroke-opacity="0.7" stroke-width="6" stroke-miterlimit="10" mask="url(#path-11-inside-1_5226_116724)"/>
<path d="M161.11 237.641L162.969 237.854C162.941 238.165 162.912 238.475 162.88 238.786C162.848 239.096 162.814 239.406 162.777 239.716C162.698 240.392 162.608 241.067 162.507 241.74C162.461 242.049 162.412 242.357 162.362 242.665C162.311 242.973 162.258 243.281 162.203 243.588L160.351 243.319L160.628 241.467C160.726 240.813 160.814 240.158 160.891 239.501L161.11 237.641Z" stroke="#FFE67E" stroke-opacity="0.7" stroke-width="6" stroke-miterlimit="10" mask="url(#path-11-inside-1_5226_116724)"/>
<path d="M159.836 245.875L161.651 246.324C161.583 246.629 161.512 246.933 161.439 247.237C161.366 247.54 161.292 247.844 161.214 248.146C161.046 248.806 160.867 249.463 160.678 250.118C160.592 250.418 160.503 250.718 160.412 251.017C160.321 251.315 160.228 251.614 160.132 251.911L158.332 251.406L158.852 249.606C159.036 248.97 159.209 248.331 159.373 247.69L159.836 245.875Z" stroke="#FFE67E" stroke-opacity="0.7" stroke-width="6" stroke-miterlimit="10" mask="url(#path-11-inside-1_5226_116724)"/>
<path d="M157.482 253.873L159.223 254.553C159.115 254.846 159.004 255.138 158.892 255.43C158.78 255.722 158.665 256.013 158.549 256.303C158.421 256.619 158.292 256.934 158.16 257.249C158.028 257.564 157.893 257.877 157.756 258.189C157.63 258.476 157.502 258.761 157.373 259.045C157.243 259.33 157.111 259.614 156.977 259.897L155.259 259.164L156.013 257.446C156.146 257.143 156.277 256.838 156.405 256.533C156.534 256.227 156.66 255.921 156.783 255.613L157.482 253.873Z" stroke="#FFE67E" stroke-opacity="0.7" stroke-width="6" stroke-miterlimit="10" mask="url(#path-11-inside-1_5226_116724)"/>
<path d="M154.09 261.501L155.725 262.398C155.579 262.675 155.431 262.951 155.281 263.226C155.131 263.501 154.979 263.774 154.825 264.047C154.489 264.642 154.144 265.231 153.79 265.815C153.627 266.083 153.463 266.349 153.297 266.615C153.13 266.88 152.962 267.144 152.792 267.407L151.185 266.46L152.16 264.854C152.505 264.287 152.84 263.714 153.166 263.136L154.09 261.501Z" stroke="#FFE67E" stroke-opacity="0.7" stroke-width="6" stroke-miterlimit="10" mask="url(#path-11-inside-1_5226_116724)"/>
<path d="M149.717 268.627L151.219 269.727C151.038 269.983 150.855 270.237 150.67 270.49C150.484 270.743 150.298 270.995 150.109 271.245C149.697 271.792 149.277 272.332 148.848 272.865C148.651 273.11 148.453 273.353 148.253 273.595C148.053 273.836 147.851 274.077 147.647 274.316L146.18 273.17L147.36 271.703C147.776 271.184 148.185 270.66 148.584 270.129L149.717 268.627Z" stroke="#FFE67E" stroke-opacity="0.7" stroke-width="6" stroke-miterlimit="10" mask="url(#path-11-inside-1_5226_116724)"/>
<path d="M144.437 275.129L145.781 276.413C145.568 276.643 145.352 276.872 145.135 277.099C144.918 277.326 144.7 277.551 144.479 277.776C144.239 278.02 143.997 278.262 143.753 278.503C143.508 278.744 143.262 278.983 143.015 279.219C142.787 279.437 142.558 279.652 142.328 279.866C142.098 280.08 141.866 280.292 141.632 280.503L140.33 279.178L141.693 277.875C141.934 277.645 142.173 277.413 142.41 277.18C142.647 276.946 142.883 276.71 143.116 276.473L144.437 275.129Z" stroke="#FFE67E" stroke-opacity="0.7" stroke-width="6" stroke-miterlimit="10" mask="url(#path-11-inside-1_5226_116724)"/>
<path d="M138.342 280.896L139.505 282.342C139.262 282.543 139.018 282.742 138.773 282.939C138.528 283.136 138.281 283.332 138.033 283.526C137.492 283.948 136.944 284.363 136.39 284.769C136.136 284.955 135.88 285.139 135.624 285.321C135.367 285.504 135.109 285.684 134.849 285.863L133.733 284.382L135.258 283.266C135.796 282.872 136.328 282.469 136.854 282.059L138.342 280.896Z" stroke="#FFE67E" stroke-opacity="0.7" stroke-width="6" stroke-miterlimit="10" mask="url(#path-11-inside-1_5226_116724)"/>
<path d="M131.536 285.83L132.497 287.413C132.23 287.581 131.962 287.747 131.692 287.911C131.423 288.075 131.153 288.237 130.881 288.397C130.289 288.746 129.691 289.087 129.087 289.418C128.811 289.57 128.533 289.719 128.254 289.867C127.976 290.015 127.696 290.161 127.415 290.305L126.504 288.693L128.164 287.782C128.75 287.461 129.331 287.13 129.906 286.791L131.536 285.83Z" stroke="#FFE67E" stroke-opacity="0.7" stroke-width="6" stroke-miterlimit="10" mask="url(#path-11-inside-1_5226_116724)"/>
<path d="M124.134 289.845L124.877 291.539C124.59 291.671 124.302 291.801 124.014 291.929C123.725 292.057 123.435 292.183 123.145 292.307C122.828 292.442 122.51 292.574 122.191 292.705C121.872 292.835 121.552 292.963 121.231 293.088C120.937 293.203 120.642 293.316 120.346 293.426C120.05 293.537 119.753 293.646 119.456 293.752L118.766 292.037L120.532 291.348C120.844 291.226 121.154 291.102 121.464 290.975C121.774 290.849 122.083 290.72 122.391 290.589L124.134 289.845Z" stroke="#FFE67E" stroke-opacity="0.7" stroke-width="6" stroke-miterlimit="10" mask="url(#path-11-inside-1_5226_116724)"/>
<path d="M116.263 292.874L116.776 294.649C116.474 294.743 116.172 294.835 115.868 294.925C115.565 295.014 115.262 295.102 114.957 295.187C114.293 295.374 113.626 295.55 112.956 295.716C112.65 295.792 112.342 295.866 112.034 295.937C111.726 296.009 111.417 296.079 111.108 296.146L110.652 294.357L112.494 293.9C113.144 293.739 113.792 293.568 114.437 293.387L116.263 292.874Z" stroke="#FFE67E" stroke-opacity="0.7" stroke-width="6" stroke-miterlimit="10" mask="url(#path-11-inside-1_5226_116724)"/>
<path d="M103.461 297.631C103.146 297.662 102.831 297.691 102.515 297.718L99.3565 296.207L104.186 295.67C104.853 295.594 105.518 295.508 106.181 295.411L108.06 295.138L108.333 296.963C108.021 297.018 107.709 297.07 107.396 297.12C107.084 297.17 106.771 297.218 106.458 297.263C105.775 297.362 105.091 297.451 104.405 297.53C104.09 297.565 103.776 297.599 103.461 297.631Z" stroke="#FFE67E" stroke-opacity="0.7" stroke-width="6" stroke-miterlimit="10" mask="url(#path-11-inside-1_5226_116724)"/>
<path d="M68.1638 425.434C67.8514 425.747 67.8514 426.253 68.1638 426.566L73.2549 431.657C73.5674 431.969 74.0739 431.969 74.3863 431.657C74.6987 431.344 74.6987 430.838 74.3863 430.525L69.8608 426L74.3863 421.475C74.6987 421.162 74.6987 420.656 74.3863 420.343C74.0739 420.031 73.5674 420.031 73.2549 420.343L68.1638 425.434ZM96.9476 426.8C133.37 426.8 162.909 397.495 162.909 361.335L161.309 361.335C161.309 396.6 132.498 425.2 96.9476 425.2L96.9476 426.8ZM162.909 361.335C162.909 325.174 133.37 295.869 96.9477 295.869L96.9477 297.469C132.498 297.469 161.309 326.069 161.309 361.335L162.909 361.335ZM96.9477 295.869C61.3969 295.869 32.5859 267.269 32.5859 232.004L30.9859 232.004C30.9859 268.164 60.5248 297.469 96.9477 297.469L96.9477 295.869ZM32.5859 232.004C32.5859 196.738 61.3969 168.138 96.9477 168.138L96.9477 166.538C60.5248 166.538 30.9859 195.843 30.9859 232.004L32.5859 232.004ZM96.9477 168.138C133.37 168.138 162.909 138.833 162.909 102.673L161.309 102.673C161.309 137.938 132.498 166.538 96.9477 166.538L96.9477 168.138ZM162.909 102.673C162.909 66.5125 133.371 37.2 96.9477 37.2L96.9477 38.8C132.498 38.8 161.309 67.4074 161.309 102.673L162.909 102.673ZM68.7295 426.8L96.9476 426.8L96.9476 425.2L68.7295 425.2L68.7295 426.8Z" fill="#FFE05E" fill-opacity="0.7"/>
<defs>
<filter id="filter0_f_5226_116724" x="0" y="0.228516" width="190.695" height="190.662" filterUnits="userSpaceOnUse" color-interpolation-filters="sRGB">
<feFlood flood-opacity="0" result="BackgroundImageFix"/>
<feBlend mode="normal" in="SourceGraphic" in2="BackgroundImageFix" result="shape"/>
<feGaussianBlur stdDeviation="25" result="effect1_foregroundBlur_5226_116724"/>
</filter>
<filter id="filter1_f_5226_116724" x="0.859375" y="130.207" width="189.859" height="189.828" filterUnits="userSpaceOnUse" color-interpolation-filters="sRGB">
<feFlood flood-opacity="0" result="BackgroundImageFix"/>
<feBlend mode="normal" in="SourceGraphic" in2="BackgroundImageFix" result="shape"/>
<feGaussianBlur stdDeviation="25" result="effect1_foregroundBlur_5226_116724"/>
</filter>
<filter id="filter2_f_5226_116724" x="0.398438" y="258.088" width="189.859" height="189.828" filterUnits="userSpaceOnUse" color-interpolation-filters="sRGB">
<feFlood flood-opacity="0" result="BackgroundImageFix"/>
<feBlend mode="normal" in="SourceGraphic" in2="BackgroundImageFix" result="shape"/>
<feGaussianBlur stdDeviation="25" result="effect1_foregroundBlur_5226_116724"/>
</filter>
<radialGradient id="paint0_radial_5226_116724" cx="0" cy="0" r="1" gradientUnits="userSpaceOnUse" gradientTransform="translate(97.9885 102.999) rotate(134.99) scale(85.7602 85.7602)">
<stop stop-color="white"/>
<stop offset="1" stop-color="white" stop-opacity="0"/>
</radialGradient>
<linearGradient id="paint1_linear_5226_116724" x1="92.0049" y1="45.9321" x2="156.068" y2="111.439" gradientUnits="userSpaceOnUse">
<stop stop-color="#FFCE00"/>
<stop offset="1" stop-color="#04F8FC"/>
</linearGradient>
<linearGradient id="paint2_linear_5226_116724" x1="85.8026" y1="92.0844" x2="112.066" y2="92.3817" gradientUnits="userSpaceOnUse">
<stop stop-color="#FFCE00"/>
<stop offset="1" stop-color="#04F8FC"/>
</linearGradient>
<radialGradient id="paint3_radial_5226_116724" cx="0" cy="0" r="1" gradientUnits="userSpaceOnUse" gradientTransform="translate(95.3327 231.999) rotate(134.99) scale(89.25 89.25)">
<stop stop-color="white"/>
<stop offset="1" stop-color="white" stop-opacity="0"/>
</radialGradient>
<linearGradient id="paint4_linear_5226_116724" x1="89.1057" y1="172.61" x2="155.776" y2="240.782" gradientUnits="userSpaceOnUse">
<stop stop-color="#FFCE00"/>
<stop offset="1" stop-color="#04F8FC"/>
</linearGradient>
<linearGradient id="paint5_linear_5226_116724" x1="82.5563" y1="223.003" x2="108.578" y2="223.313" gradientUnits="userSpaceOnUse">
<stop stop-color="#FFCE00"/>
<stop offset="1" stop-color="#04F8FC"/>
</linearGradient>
<radialGradient id="paint6_radial_5226_116724" cx="0" cy="0" r="1" gradientUnits="userSpaceOnUse" gradientTransform="translate(95.3327 360.999) rotate(134.99) scale(89.25 89.25)">
<stop stop-color="white"/>
<stop offset="1" stop-color="white" stop-opacity="0"/>
</radialGradient>
<linearGradient id="paint7_linear_5226_116724" x1="89.1057" y1="301.61" x2="155.776" y2="369.782" gradientUnits="userSpaceOnUse">
<stop stop-color="#FFCE00"/>
<stop offset="1" stop-color="#04F8FC"/>
</linearGradient>
<linearGradient id="paint8_linear_5226_116724" x1="80.6129" y1="350.206" x2="109.526" y2="350.533" gradientUnits="userSpaceOnUse">
<stop stop-color="#FFCE00"/>
<stop offset="1" stop-color="#04F8FC"/>
</linearGradient>
</defs>
</svg>
