<svg width="24" height="25" viewBox="0 0 24 25" fill="none" xmlns="http://www.w3.org/2000/svg">
<rect x="0.3" y="0.800122" width="23.4" height="23.4" rx="3.7" fill="url(#paint0_radial_5797_10987)" fill-opacity="0.15"/>
<rect x="0.3" y="0.800122" width="23.4" height="23.4" rx="3.7" stroke="url(#paint1_linear_5797_10987)" stroke-width="0.6"/>
<path d="M5.85714 6.41244V18.5106C5.85714 18.62 5.81199 18.7249 5.73162 18.8023C5.65124 18.8796 5.54224 18.9231 5.42857 18.9231C5.31491 18.9231 5.2059 18.8796 5.12553 18.8023C5.04515 18.7249 5 18.62 5 18.5106V6.41244C5 6.30305 5.04515 6.19815 5.12553 6.1208C5.2059 6.04345 5.31491 6 5.42857 6C5.54224 6 5.65124 6.04345 5.73162 6.1208C5.81199 6.19815 5.85714 6.30305 5.85714 6.41244ZM7.28571 10.8118V8.06219C7.28571 7.80696 7.39107 7.56218 7.57861 7.3817C7.76614 7.20123 8.0205 7.09984 8.28571 7.09984H15.1429C15.4081 7.09984 15.6624 7.20123 15.85 7.3817C16.0375 7.56218 16.1429 7.80696 16.1429 8.06219V10.8118C16.1429 10.9382 16.117 11.0633 16.0667 11.1801C16.0165 11.2968 15.9428 11.4029 15.85 11.4923C15.7571 11.5816 15.6469 11.6525 15.5255 11.7009C15.4042 11.7492 15.2742 11.7741 15.1429 11.7741H8.28571C8.15439 11.7741 8.02436 11.7492 7.90303 11.7009C7.78171 11.6525 7.67147 11.5816 7.57861 11.4923C7.48575 11.4029 7.41209 11.2968 7.36184 11.1801C7.31158 11.0633 7.28571 10.9382 7.28571 10.8118ZM8.14286 10.8118C8.14286 10.8482 8.15791 10.8832 8.1847 10.909C8.21149 10.9348 8.24783 10.9493 8.28571 10.9493H15.1429C15.1807 10.9493 15.2171 10.9348 15.2439 10.909C15.2707 10.8832 15.2857 10.8482 15.2857 10.8118V8.06219C15.2857 8.02573 15.2707 7.99076 15.2439 7.96498C15.2171 7.9392 15.1807 7.92471 15.1429 7.92471H8.28571C8.24783 7.92471 8.21149 7.9392 8.1847 7.96498C8.15791 7.99076 8.14286 8.02573 8.14286 8.06219V10.8118ZM19 14.1113V16.8609C19 17.1161 18.8946 17.3609 18.7071 17.5414C18.5196 17.7218 18.2652 17.8232 18 17.8232H8.28571C8.0205 17.8232 7.76614 17.7218 7.57861 17.5414C7.39107 17.3609 7.28571 17.1161 7.28571 16.8609V14.1113C7.28571 13.8561 7.39107 13.6113 7.57861 13.4308C7.76614 13.2503 8.0205 13.1489 8.28571 13.1489H18C18.2652 13.1489 18.5196 13.2503 18.7071 13.4308C18.8946 13.6113 19 13.8561 19 14.1113ZM18.1429 14.1113C18.1429 14.0748 18.1278 14.0399 18.101 14.0141C18.0742 13.9883 18.0379 13.9738 18 13.9738H8.28571C8.24783 13.9738 8.21149 13.9883 8.1847 14.0141C8.15791 14.0399 8.14286 14.0748 8.14286 14.1113V16.8609C8.14286 16.8973 8.15791 16.9323 8.1847 16.9581C8.21149 16.9839 8.24783 16.9984 8.28571 16.9984H18C18.0379 16.9984 18.0742 16.9839 18.101 16.9581C18.1278 16.9323 18.1429 16.8973 18.1429 16.8609V14.1113Z" fill="white"/>
<defs>
<radialGradient id="paint0_radial_5797_10987" cx="0" cy="0" r="1" gradientUnits="userSpaceOnUse" gradientTransform="translate(12 12.5001) rotate(90) scale(22.3125)">
<stop stop-color="white"/>
<stop offset="1" stop-color="white" stop-opacity="0"/>
</radialGradient>
<linearGradient id="paint1_linear_5797_10987" x1="12" y1="0.500122" x2="12" y2="24.5001" gradientUnits="userSpaceOnUse">
<stop stop-color="#F9F9F9"/>
<stop offset="1" stop-color="#F9F9F9" stop-opacity="0"/>
</linearGradient>
</defs>
</svg>
