<svg width="32" height="33" viewBox="0 0 32 33" fill="none" xmlns="http://www.w3.org/2000/svg">
<g id="bar-chart-circle-01">
<path id="Vector" d="M5.46939 5.83662V27.3876C5.46939 27.5825 5.39198 27.7694 5.2542 27.9072C5.11642 28.0449 4.92955 28.1223 4.73469 28.1223C4.53984 28.1223 4.35297 28.0449 4.21519 27.9072C4.0774 27.7694 4 27.5825 4 27.3876V5.83662C4 5.64177 4.0774 5.4549 4.21519 5.31712C4.35297 5.17933 4.53984 5.10193 4.73469 5.10193C4.92955 5.10193 5.11642 5.17933 5.2542 5.31712C5.39198 5.4549 5.46939 5.64177 5.46939 5.83662ZM7.91837 13.6734V8.7754C7.91837 8.32074 8.09898 7.88471 8.42047 7.56322C8.74196 7.24172 9.178 7.06111 9.63265 7.06111H21.3878C21.8424 7.06111 22.2784 7.24172 22.5999 7.56322C22.9214 7.88471 23.102 8.32074 23.102 8.7754V13.6734C23.102 13.8985 23.0577 14.1214 22.9715 14.3294C22.8854 14.5374 22.7591 14.7264 22.5999 14.8855C22.4408 15.0447 22.2518 15.171 22.0438 15.2572C21.8358 15.3433 21.6129 15.3876 21.3878 15.3876H9.63265C9.40753 15.3876 9.18461 15.3433 8.97662 15.2572C8.76864 15.171 8.57966 15.0447 8.42047 14.8855C8.26128 14.7264 8.13501 14.5374 8.04886 14.3294C7.96271 14.1214 7.91837 13.8985 7.91837 13.6734ZM9.38776 13.6734C9.38776 13.7383 9.41356 13.8006 9.45948 13.8465C9.50541 13.8925 9.5677 13.9183 9.63265 13.9183H21.3878C21.4527 13.9183 21.515 13.8925 21.5609 13.8465C21.6069 13.8006 21.6327 13.7383 21.6327 13.6734V8.7754C21.6327 8.71045 21.6069 8.64816 21.5609 8.60223C21.515 8.5563 21.4527 8.5305 21.3878 8.5305H9.63265C9.5677 8.5305 9.50541 8.5563 9.45948 8.60223C9.41356 8.64816 9.38776 8.71045 9.38776 8.7754V13.6734ZM28 19.5509V24.4489C28 24.9035 27.8194 25.3396 27.4979 25.6611C27.1764 25.9825 26.7404 26.1632 26.2857 26.1632H9.63265C9.178 26.1632 8.74196 25.9825 8.42047 25.6611C8.09898 25.3396 7.91837 24.9035 7.91837 24.4489V19.5509C7.91837 19.0963 8.09898 18.6602 8.42047 18.3387C8.74196 18.0172 9.178 17.8366 9.63265 17.8366H26.2857C26.7404 17.8366 27.1764 18.0172 27.4979 18.3387C27.8194 18.6602 28 19.0963 28 19.5509ZM26.5306 19.5509C26.5306 19.486 26.5048 19.4237 26.4589 19.3777C26.413 19.3318 26.3507 19.306 26.2857 19.306H9.63265C9.5677 19.306 9.50541 19.3318 9.45948 19.3777C9.41356 19.4237 9.38776 19.486 9.38776 19.5509V24.4489C9.38776 24.5138 9.41356 24.5761 9.45948 24.622C9.50541 24.668 9.5677 24.6938 9.63265 24.6938H26.2857C26.3507 24.6938 26.413 24.668 26.4589 24.622C26.5048 24.5761 26.5306 24.5138 26.5306 24.4489V19.5509Z" fill="white"/>
</g>
</svg>
