<svg xmlns="http://www.w3.org/2000/svg" width="32" height="32" viewBox="0 0 32 32" fill="none">
  <path d="M15.9974 19.9993C18.2065 19.9993 19.9974 18.2085 19.9974 15.9993C19.9974 13.7902 18.2065 11.9993 15.9974 11.9993C13.7883 11.9993 11.9974 13.7902 11.9974 15.9993C11.9974 18.2085 13.7883 19.9993 15.9974 19.9993Z" stroke="white" stroke-width="2" stroke-linecap="round" stroke-linejoin="round"/>
  <path d="M24.9671 19.6357C24.8057 20.0013 24.7576 20.4069 24.8289 20.8001C24.9002 21.1933 25.0877 21.5561 25.3671 21.8418L25.4398 21.9145C25.6652 22.1396 25.844 22.407 25.966 22.7013C26.088 22.9956 26.1508 23.3111 26.1508 23.6297C26.1508 23.9482 26.088 24.2637 25.966 24.558C25.844 24.8523 25.6652 25.1197 25.4398 25.3448C25.2147 25.5702 24.9473 25.749 24.653 25.871C24.3587 25.993 24.0433 26.0558 23.7247 26.0558C23.4061 26.0558 23.0906 25.993 22.7963 25.871C22.502 25.749 22.2347 25.5702 22.0095 25.3448L21.9368 25.2721C21.6511 24.9926 21.2883 24.8052 20.8951 24.7339C20.5019 24.6626 20.0963 24.7107 19.7307 24.8721C19.3722 25.0257 19.0665 25.2809 18.8511 25.6061C18.6357 25.9313 18.5202 26.3123 18.5186 26.7024V26.9084C18.5186 27.5514 18.2632 28.168 17.8086 28.6226C17.3539 29.0773 16.7373 29.3327 16.0944 29.3327C15.4514 29.3327 14.8348 29.0773 14.3802 28.6226C13.9255 28.168 13.6701 27.5514 13.6701 26.9084V26.7993C13.6607 26.3981 13.5309 26.009 13.2974 25.6826C13.0639 25.3562 12.7377 25.1076 12.361 24.969C11.9954 24.8077 11.5899 24.7596 11.1967 24.8309C10.8035 24.9022 10.4406 25.0896 10.155 25.369L10.0822 25.4418C9.8571 25.6672 9.58973 25.846 9.29543 25.968C9.00113 26.09 8.68568 26.1528 8.36709 26.1528C8.04851 26.1528 7.73305 26.09 7.43875 25.968C7.14445 25.846 6.87709 25.6672 6.65194 25.4418C6.42654 25.2166 6.24773 24.9493 6.12574 24.655C6.00374 24.3607 5.94094 24.0452 5.94094 23.7266C5.94094 23.408 6.00374 23.0926 6.12574 22.7983C6.24773 22.504 6.42654 22.2366 6.65194 22.0115L6.72467 21.9387C7.00411 21.6531 7.19156 21.2902 7.26286 20.897C7.33415 20.5038 7.28602 20.0983 7.12467 19.7327C6.97102 19.3742 6.71589 19.0684 6.39069 18.8531C6.06549 18.6377 5.68441 18.5221 5.29437 18.5206H5.0883C4.44536 18.5206 3.82874 18.2651 3.37411 17.8105C2.91947 17.3559 2.66406 16.7393 2.66406 16.0963C2.66406 15.4534 2.91947 14.8368 3.37411 14.3821C3.82874 13.9275 4.44536 13.6721 5.0883 13.6721H5.1974C5.5986 13.6627 5.9877 13.5328 6.31412 13.2994C6.64054 13.0659 6.88917 12.7396 7.0277 12.363C7.18905 11.9974 7.23718 11.5918 7.16589 11.1986C7.09459 10.8054 6.90714 10.4426 6.6277 10.1569L6.55497 10.0842C6.32957 9.85905 6.15076 9.59168 6.02877 9.29739C5.90677 9.00309 5.84397 8.68763 5.84397 8.36905C5.84397 8.05046 5.90677 7.735 6.02877 7.44071C6.15076 7.14641 6.32957 6.87904 6.55497 6.65389C6.78012 6.4285 7.04748 6.24969 7.34178 6.12769C7.63608 6.00569 7.95154 5.9429 8.27012 5.9429C8.58871 5.9429 8.90416 6.00569 9.19846 6.12769C9.49276 6.24969 9.76013 6.4285 9.98527 6.65389L10.058 6.72662C10.3437 7.00606 10.7065 7.19351 11.0997 7.26481C11.4929 7.3361 11.8985 7.28797 12.2641 7.12662H12.361C12.7195 6.97297 13.0253 6.71784 13.2407 6.39264C13.456 6.06744 13.5716 5.68636 13.5732 5.29632V5.09026C13.5732 4.44731 13.8286 3.83069 14.2832 3.37606C14.7378 2.92143 15.3544 2.66602 15.9974 2.66602C16.6403 2.66602 17.257 2.92143 17.7116 3.37606C18.1662 3.83069 18.4216 4.44731 18.4216 5.09026V5.19935C18.4232 5.58939 18.5388 5.97047 18.7541 6.29567C18.9695 6.62087 19.2753 6.876 19.6338 7.02965C19.9994 7.191 20.4049 7.23913 20.7981 7.16784C21.1913 7.09654 21.5541 6.90909 21.8398 6.62965L21.9125 6.55692C22.1377 6.33153 22.4051 6.15272 22.6994 6.03072C22.9937 5.90872 23.3091 5.84593 23.6277 5.84593C23.9463 5.84593 24.2617 5.90872 24.556 6.03072C24.8503 6.15272 25.1177 6.33153 25.3428 6.55692C25.5682 6.78207 25.7471 7.04944 25.8691 7.34374C25.9911 7.63803 26.0538 7.95349 26.0538 8.27208C26.0538 8.59066 25.9911 8.90612 25.8691 9.20042C25.7471 9.49471 25.5682 9.76208 25.3428 9.98723L25.2701 10.06C24.9907 10.3456 24.8032 10.7085 24.7319 11.1017C24.6606 11.4949 24.7088 11.9004 24.8701 12.266V12.363C25.0238 12.7215 25.2789 13.0272 25.6041 13.2426C25.9293 13.458 26.3104 13.5736 26.7004 13.5751H26.9065C27.5494 13.5751 28.166 13.8305 28.6207 14.2852C29.0753 14.7398 29.3307 15.3564 29.3307 15.9993C29.3307 16.6423 29.0753 17.2589 28.6207 17.7135C28.166 18.1682 27.5494 18.4236 26.9065 18.4236H26.7974C26.4074 18.4251 26.0263 18.5407 25.7011 18.7561C25.3759 18.9714 25.1207 19.2772 24.9671 19.6357Z" stroke="white" stroke-width="2" stroke-linecap="round" stroke-linejoin="round"/>
</svg>