<svg width="24" height="25" viewBox="0 0 24 25" fill="none" xmlns="http://www.w3.org/2000/svg">
<rect x="0.3" y="0.8" width="23.4" height="23.4" rx="3.7" fill="url(#paint0_radial_5226_118167)" fill-opacity="0.15"/>
<rect x="0.3" y="0.8" width="23.4" height="23.4" rx="3.7" stroke="url(#paint1_linear_5226_118167)" stroke-width="0.6"/>
<path d="M12 14.3C12.9941 14.3 13.8 13.4941 13.8 12.5C13.8 11.5059 12.9941 10.7 12 10.7C11.0059 10.7 10.2 11.5059 10.2 12.5C10.2 13.4941 11.0059 14.3 12 14.3Z" stroke="white" stroke-width="1.4" stroke-linecap="round" stroke-linejoin="round"/>
<path d="M16.0364 14.1364C15.9638 14.3009 15.9421 14.4834 15.9742 14.6603C16.0063 14.8373 16.0906 15.0005 16.2164 15.1291L16.2491 15.1618C16.3505 15.2631 16.431 15.3834 16.4859 15.5159C16.5408 15.6483 16.569 15.7903 16.569 15.9336C16.569 16.077 16.5408 16.219 16.4859 16.3514C16.431 16.4838 16.3505 16.6041 16.2491 16.7055C16.1478 16.8069 16.0275 16.8873 15.895 16.9422C15.7626 16.9971 15.6206 17.0254 15.4773 17.0254C15.3339 17.0254 15.192 16.9971 15.0595 16.9422C14.9271 16.8873 14.8068 16.8069 14.7055 16.7055L14.6727 16.6727C14.5442 16.547 14.3809 16.4626 14.204 16.4305C14.027 16.3985 13.8445 16.4201 13.68 16.4927C13.5187 16.5619 13.3811 16.6767 13.2842 16.823C13.1873 16.9694 13.1352 17.1408 13.1345 17.3164V17.4091C13.1345 17.6984 13.0196 17.9759 12.815 18.1805C12.6104 18.3851 12.333 18.5 12.0436 18.5C11.7543 18.5 11.4768 18.3851 11.2722 18.1805C11.0677 17.9759 10.9527 17.6984 10.9527 17.4091V17.36C10.9485 17.1795 10.8901 17.0044 10.785 16.8575C10.6799 16.7106 10.5331 16.5987 10.3636 16.5364C10.1991 16.4638 10.0166 16.4421 9.83968 16.4742C9.66274 16.5063 9.49946 16.5906 9.37091 16.7164L9.33818 16.7491C9.23687 16.8505 9.11655 16.931 8.98412 16.9859C8.85168 17.0408 8.70973 17.069 8.56636 17.069C8.423 17.069 8.28104 17.0408 8.14861 16.9859C8.01618 16.931 7.89586 16.8505 7.79455 16.7491C7.69312 16.6478 7.61265 16.5275 7.55775 16.395C7.50285 16.2626 7.4746 16.1206 7.4746 15.9773C7.4746 15.8339 7.50285 15.692 7.55775 15.5595C7.61265 15.4271 7.69312 15.3068 7.79455 15.2055L7.82727 15.1727C7.95302 15.0442 8.03737 14.8809 8.06946 14.704C8.10154 14.527 8.07988 14.3445 8.00727 14.18C7.93813 14.0187 7.82332 13.8811 7.67698 13.7842C7.53064 13.6873 7.35916 13.6352 7.18364 13.6345H7.09091C6.80158 13.6345 6.52411 13.5196 6.31952 13.315C6.11493 13.1104 6 12.833 6 12.5436C6 12.2543 6.11493 11.9768 6.31952 11.7722C6.52411 11.5677 6.80158 11.4527 7.09091 11.4527H7.14C7.32054 11.4485 7.49564 11.3901 7.64253 11.285C7.78941 11.1799 7.9013 11.0331 7.96364 10.8636C8.03624 10.6991 8.0579 10.5166 8.02582 10.3397C7.99374 10.1627 7.90938 9.99946 7.78364 9.87091L7.75091 9.83818C7.64948 9.73687 7.56902 9.61655 7.51412 9.48412C7.45922 9.35168 7.43096 9.20973 7.43096 9.06636C7.43096 8.923 7.45922 8.78104 7.51412 8.64861C7.56902 8.51618 7.64948 8.39586 7.75091 8.29455C7.85223 8.19312 7.97254 8.11265 8.10497 8.05775C8.23741 8.00285 8.37937 7.9746 8.52273 7.9746C8.66609 7.9746 8.80805 8.00285 8.94048 8.05775C9.07291 8.11265 9.19323 8.19312 9.29455 8.29455L9.32727 8.32727C9.45583 8.45302 9.6191 8.53737 9.79604 8.56946C9.97299 8.60154 10.1555 8.57988 10.32 8.50727H10.3636C10.525 8.43813 10.6626 8.32332 10.7595 8.17698C10.8564 8.03064 10.9084 7.85916 10.9091 7.68364V7.59091C10.9091 7.30158 11.024 7.02411 11.2286 6.81952C11.4332 6.61493 11.7107 6.5 12 6.5C12.2893 6.5 12.5668 6.61493 12.7714 6.81952C12.976 7.02411 13.0909 7.30158 13.0909 7.59091V7.64C13.0916 7.81552 13.1436 7.987 13.2405 8.13335C13.3374 8.27969 13.475 8.39449 13.6364 8.46364C13.8009 8.53624 13.9834 8.5579 14.1603 8.52582C14.3373 8.49374 14.5005 8.40938 14.6291 8.28364L14.6618 8.25091C14.7631 8.14948 14.8834 8.06902 15.0159 8.01412C15.1483 7.95922 15.2903 7.93096 15.4336 7.93096C15.577 7.93096 15.719 7.95922 15.8514 8.01412C15.9838 8.06902 16.1041 8.14948 16.2055 8.25091C16.3069 8.35223 16.3873 8.47254 16.4422 8.60497C16.4971 8.73741 16.5254 8.87937 16.5254 9.02273C16.5254 9.16609 16.4971 9.30805 16.4422 9.44048C16.3873 9.57291 16.3069 9.69323 16.2055 9.79455L16.1727 9.82727C16.047 9.95583 15.9626 10.1191 15.9305 10.296C15.8985 10.473 15.9201 10.6555 15.9927 10.82V10.8636C16.0619 11.025 16.1767 11.1626 16.323 11.2595C16.4694 11.3564 16.6408 11.4084 16.8164 11.4091H16.9091C17.1984 11.4091 17.4759 11.524 17.6805 11.7286C17.8851 11.9332 18 12.2107 18 12.5C18 12.7893 17.8851 13.0668 17.6805 13.2714C17.4759 13.476 17.1984 13.5909 16.9091 13.5909H16.86C16.6845 13.5916 16.513 13.6436 16.3667 13.7405C16.2203 13.8374 16.1055 13.975 16.0364 14.1364Z" stroke="white" stroke-width="1.4" stroke-linecap="round" stroke-linejoin="round"/>
<defs>
<radialGradient id="paint0_radial_5226_118167" cx="0" cy="0" r="1" gradientUnits="userSpaceOnUse" gradientTransform="translate(12 12.5) rotate(90) scale(22.3125)">
<stop stop-color="white"/>
<stop offset="1" stop-color="white" stop-opacity="0"/>
</radialGradient>
<linearGradient id="paint1_linear_5226_118167" x1="12" y1="0.5" x2="12" y2="24.5" gradientUnits="userSpaceOnUse">
<stop stop-color="#F9F9F9"/>
<stop offset="1" stop-color="#F9F9F9" stop-opacity="0"/>
</linearGradient>
</defs>
</svg>
