<svg width="154" height="14" viewBox="0 0 154 14" fill="none" xmlns="http://www.w3.org/2000/svg">
<path d="M6.88586 13.8641C2.82586 13.8641 0.545859 12.2641 0.545859 9.14406V9.02406H3.54586V9.38406C3.54586 10.6241 4.16586 11.1241 6.88586 11.1241C9.28586 11.1241 9.84586 10.7641 9.84586 9.86406C9.84586 9.04406 9.38586 8.74406 8.00586 8.50406L4.24586 7.96406C1.84586 7.58406 0.425859 6.38406 0.425859 4.20406C0.425859 2.18406 2.06586 0.0640624 6.56586 0.0640624C10.6859 0.0640624 12.6059 1.96406 12.6059 4.78406V4.90406H9.58586V4.62406C9.58586 3.34406 8.92586 2.80406 6.26586 2.80406C4.10586 2.80406 3.44586 3.22406 3.44586 4.08406C3.44586 4.86406 3.88586 5.14406 5.00586 5.34406L8.76586 5.94406C11.7659 6.42406 12.8459 7.88406 12.8459 9.72406C12.8459 11.9041 11.1459 13.8641 6.88586 13.8641ZM17.0676 13.6641H14.0676V0.264062H17.0676V13.6641ZM24.9579 13.8641C20.8579 13.8641 18.3379 11.1441 18.3379 6.96406C18.3379 2.78406 21.1779 0.0640624 25.7779 0.0640624C29.9779 0.0640624 32.6379 2.02406 32.6379 5.24406V5.40406H29.2979V5.24406C29.2979 3.68406 28.2779 2.94406 25.6979 2.94406C22.6579 2.94406 21.5179 3.98406 21.5179 6.96406C21.5179 9.94406 22.6179 10.9841 25.5579 10.9841C28.6379 10.9841 29.5779 10.5041 29.6579 8.80406H25.1179V6.58406H32.6579V13.6641H29.8779V10.7841H29.7179C29.2579 12.5441 27.8579 13.8641 24.9579 13.8641ZM37.1262 13.6641H34.1262V0.264062H37.3262L42.1262 6.60406L43.9662 9.42406H44.1862L44.0462 6.72406V0.264062H47.0462V13.6641H43.8462L38.9062 7.26406L37.2062 4.74406H37.0062L37.1262 7.20406V13.6641ZM55.1179 13.8641C50.7579 13.8641 48.5379 11.6641 48.5379 8.06406V0.264062H51.5379V7.84406C51.5379 10.1241 52.3979 10.9441 55.1179 10.9441C57.8579 10.9441 58.6979 10.1241 58.6979 7.84406V0.264062H61.6979V8.06406C61.6979 11.6641 59.4979 13.8641 55.1179 13.8641ZM66.2082 13.6641H63.2082V0.264062H70.2082C73.3082 0.264062 75.3082 2.02406 75.3082 5.10406C75.3082 8.18406 73.3082 9.96406 70.2082 9.96406H66.2082V13.6641ZM69.8882 2.96406H66.2082V7.26406H69.8882C71.5482 7.26406 72.3282 6.78406 72.3282 5.10406C72.3282 3.46406 71.5482 2.96406 69.8882 2.96406ZM86.9182 13.6641H83.9182V2.96406H78.9382V0.264062H91.8982V2.96406H86.9182V13.6641ZM99.8738 13.8641C95.4338 13.8641 92.6738 11.1441 92.6738 6.96406C92.6738 2.78406 95.4338 0.0640624 99.8738 0.0640624C104.414 0.0640624 107.154 2.78406 107.154 6.96406C107.154 11.1441 104.414 13.8641 99.8738 13.8641ZM99.8738 10.9841C102.814 10.9841 103.954 9.94406 103.954 6.96406C103.954 3.98406 102.814 2.94406 99.8738 2.94406C96.9338 2.94406 95.8538 3.98406 95.8538 6.96406C95.8538 9.94406 96.9338 10.9841 99.8738 10.9841ZM115.082 13.6641H108.622V0.264062H115.082C119.382 0.264062 122.102 2.76406 122.102 6.96406C122.102 11.1641 119.382 13.6641 115.082 13.6641ZM115.082 2.96406H111.622V10.9641H115.082C117.802 10.9641 118.902 10.1841 118.902 6.96406C118.902 3.74406 117.802 2.96406 115.082 2.96406ZM125.864 13.6641H122.504L128.364 0.264062H132.644L138.544 13.6641H135.104L133.844 10.7041H127.144L125.864 13.6641ZM129.564 5.08406L128.304 8.00406H132.684L131.424 5.08406L130.604 3.00406H130.384L129.564 5.08406ZM147.183 13.6641H144.163V9.22406L138.223 0.264062H141.923L144.483 4.18406L145.603 5.98406H145.823L146.943 4.18406L149.503 0.264062H153.223L147.183 9.24406V13.6641Z" fill="url(#paint0_linear_3867_84092)"/>
<defs>
<linearGradient id="paint0_linear_3867_84092" x1="2.56425" y1="-1.73595" x2="153.757" y2="9.17613" gradientUnits="userSpaceOnUse">
<stop stop-color="#FFCE00"/>
<stop offset="1" stop-color="#04F8FC"/>
</linearGradient>
</defs>
</svg>
