<svg xmlns="http://www.w3.org/2000/svg" width="182" height="183" viewBox="0 0 182 183" fill="none">
  <g filter="url(#filter0_ddd_3867_84109)">
    <path fill-rule="evenodd" clip-rule="evenodd" d="M92.9585 89.7046L91.0779 78.3336L89.1972 89.7046L77.7797 91.5776L89.1972 93.4505L91.0779 104.821L92.9585 93.4505L104.376 91.5776L92.9585 89.7046ZM108.209 91.5776L93.5006 93.9904L91.0779 108.639L88.6552 93.9904L73.9467 91.5776L88.6552 89.1647L91.0779 74.5163L93.5006 89.1647L108.209 91.5776Z" fill="white" fill-opacity="0.5"/>
    <path fill-rule="evenodd" clip-rule="evenodd" d="M94.7495 91.5658L92.8689 80.1948L90.9882 91.5658L79.5706 93.4388L90.9882 95.3118L92.8689 106.683L94.7495 95.3118L106.167 93.4388L94.7495 91.5658ZM110 93.4388L95.2916 95.8516L92.8689 110.5L90.4461 95.8516L75.7377 93.4388L90.4461 91.026L92.8689 76.3776L95.2916 91.026L110 93.4388Z" fill="white" fill-opacity="0.5"/>
    <path d="M89.1311 72.5L91.5539 87.1484L106.262 89.5612L91.5539 91.974L89.1311 106.622L86.7084 91.974L72 89.5612L86.7084 87.1484L89.1311 72.5Z" fill="white" fill-opacity="0.5"/>
  </g>
  <defs>
    <filter id="filter0_ddd_3867_84109" x="0.18" y="0.68" width="181.64" height="181.64" filterUnits="userSpaceOnUse" color-interpolation-filters="sRGB">
      <feFlood flood-opacity="0" result="BackgroundImageFix"/>
      <feColorMatrix in="SourceAlpha" type="matrix" values="0 0 0 0 0 0 0 0 0 0 0 0 0 0 0 0 0 0 127 0" result="hardAlpha"/>
      <feOffset/>
      <feGaussianBlur stdDeviation="5.985"/>
      <feColorMatrix type="matrix" values="0 0 0 0 1 0 0 0 0 1 0 0 0 0 1 0 0 0 1 0"/>
      <feBlend mode="normal" in2="BackgroundImageFix" result="effect1_dropShadow_3867_84109"/>
      <feColorMatrix in="SourceAlpha" type="matrix" values="0 0 0 0 0 0 0 0 0 0 0 0 0 0 0 0 0 0 127 0" result="hardAlpha"/>
      <feOffset/>
      <feGaussianBlur stdDeviation="20.52"/>
      <feColorMatrix type="matrix" values="0 0 0 0 1 0 0 0 0 1 0 0 0 0 1 0 0 0 1 0"/>
      <feBlend mode="normal" in2="effect1_dropShadow_3867_84109" result="effect2_dropShadow_3867_84109"/>
      <feColorMatrix in="SourceAlpha" type="matrix" values="0 0 0 0 0 0 0 0 0 0 0 0 0 0 0 0 0 0 127 0" result="hardAlpha"/>
      <feOffset/>
      <feGaussianBlur stdDeviation="35.91"/>
      <feColorMatrix type="matrix" values="0 0 0 0 1 0 0 0 0 1 0 0 0 0 1 0 0 0 0.61 0"/>
      <feBlend mode="normal" in2="effect2_dropShadow_3867_84109" result="effect3_dropShadow_3867_84109"/>
      <feBlend mode="normal" in="SourceGraphic" in2="effect3_dropShadow_3867_84109" result="shape"/>
    </filter>
  </defs>
</svg>