<svg xmlns="http://www.w3.org/2000/svg" width="1058" height="355" viewBox="0 0 1058 355" fill="none">
  <path d="M1045.44 254.561C1046.03 255.146 1046.97 255.146 1047.56 254.561L1057.11 245.015C1057.69 244.429 1057.69 243.479 1057.11 242.893C1056.52 242.308 1055.57 242.308 1054.99 242.893L1046.5 251.379L1038.01 242.893C1037.43 242.308 1036.48 242.308 1035.89 242.893C1035.31 243.479 1035.31 244.429 1035.89 245.015L1045.44 254.561ZM1048 177.5C1048 79.7592 969.361 0.5 872.337 0.5V3.5C967.682 3.5 1045 81.3944 1045 177.5H1048ZM872.337 0.5C775.312 0.5 696.673 79.7592 696.673 177.5H699.673C699.673 81.3944 776.991 3.5 872.337 3.5V0.5ZM696.673 177.5C696.673 273.606 619.356 351.5 524.01 351.5V354.5C621.034 354.5 699.673 275.241 699.673 177.5H696.673ZM524.01 351.5C428.664 351.5 351.346 273.606 351.346 177.5H348.346C348.346 275.241 426.986 354.5 524.01 354.5V351.5ZM351.346 177.5C351.346 79.7592 272.707 0.5 175.683 0.5V3.5C271.029 3.5 348.346 81.3944 348.346 177.5H351.346ZM175.683 0.5C78.6589 0.5 0 79.759 0 177.5H3C3 81.3946 80.3369 3.5 175.683 3.5V0.5ZM1048 253.5V177.5H1045V253.5H1048Z" fill="#FFE05E" fill-opacity="0.7"/>
</svg>