<svg xmlns="http://www.w3.org/2000/svg" width="18" height="17" viewBox="0 0 18 17" fill="none">
  <path d="M17.7618 2.74736C17.7122 2.62744 17.6281 2.52493 17.5202 2.4528C17.4123 2.38067 17.2854 2.34215 17.1556 2.34213H14.6594C14.3104 1.74837 13.8137 1.25501 13.2176 0.910028C12.6215 0.565048 11.9463 0.380168 11.2576 0.373378C10.7445 0.366648 10.2352 0.462608 9.75977 0.655608C9.28427 0.848608 8.85227 1.13475 8.48897 1.49721C8.11517 1.86407 7.81847 2.30197 7.61627 2.78517C7.41414 3.26836 7.31063 3.7871 7.31186 4.31088V4.81045C4.00928 3.93928 1.30799 1.25275 1.27928 1.22404C1.19123 1.13522 1.07964 1.0734 0.957653 1.04587C0.835653 1.01835 0.708333 1.02625 0.590673 1.06866C0.473023 1.11107 0.369932 1.18621 0.293552 1.28524C0.217172 1.38427 0.170683 1.50307 0.159553 1.62763C-0.193997 5.54791 0.944593 8.17124 1.96424 9.68144C2.46141 10.428 3.06623 11.0969 3.75908 11.6666C2.50975 13.1046 0.542643 13.8601 0.521313 13.8683C0.428713 13.903 0.345142 13.9581 0.276852 14.0297C0.208562 14.1012 0.157322 14.1872 0.126952 14.2813C0.0965825 14.3754 0.0878724 14.4752 0.101472 14.5731C0.115072 14.6711 0.150633 14.7647 0.205493 14.8469C0.267013 14.9388 0.513113 15.2612 1.11439 15.5622C1.8576 15.9347 2.83951 16.1233 4.03061 16.1233C9.82777 16.1233 14.6717 11.6592 15.1664 5.91541L17.6199 3.46267C17.7117 3.37085 17.7741 3.25387 17.7994 3.12654C17.8247 2.99922 17.8116 2.86726 17.7618 2.74736ZM14.0704 5.1599C13.9579 5.27269 13.8903 5.42255 13.8801 5.58154C13.5463 10.7569 9.22157 14.8108 4.03061 14.8108C3.16436 14.8108 2.55404 14.696 2.12584 14.5582C3.07002 14.0455 4.38662 13.1636 5.23318 11.8938C5.28287 11.8191 5.31672 11.7351 5.33265 11.6468C5.34859 11.5586 5.34625 11.468 5.32581 11.3806C5.30536 11.2933 5.26723 11.2111 5.21377 11.1391C5.16031 11.0671 5.09265 11.0068 5.01498 10.9619C4.97643 10.9398 1.41299 8.80124 1.40561 3.08697C2.71811 4.15338 5.11752 5.80795 7.85897 6.26896C7.95297 6.2848 8.04927 6.27999 8.14117 6.25487C8.23307 6.22974 8.31837 6.18491 8.39127 6.12347C8.46407 6.06203 8.52267 5.98548 8.56287 5.89911C8.60317 5.81275 8.62417 5.71866 8.62437 5.62338V4.31088C8.62357 3.96081 8.69287 3.61413 8.82817 3.29124C8.96337 2.96835 9.16187 2.67577 9.41187 2.43072C9.65147 2.19061 9.93687 2.00099 10.2511 1.87305C10.5653 1.74512 10.902 1.68147 11.2412 1.68588C12.2797 1.699 13.2501 2.33228 13.6562 3.2617C13.7074 3.37855 13.7915 3.47795 13.8983 3.54773C14.0051 3.61752 14.1299 3.65466 14.2575 3.65463H15.57L14.0704 5.1599Z" fill="#928C97"/>
</svg>