<svg width="982" height="803" viewBox="0 0 982 803" fill="none" xmlns="http://www.w3.org/2000/svg">
<path d="M40.9269 392.498C63.2102 265.62 183.987 180.949 310.689 203.379C437.39 225.809 522.039 346.845 499.756 473.723C477.473 600.601 356.696 685.272 229.994 662.842C103.292 640.412 18.6437 519.376 40.9269 392.498Z" stroke="white" stroke-opacity="0.3"/>
<path d="M63.9448 351.481C97.1861 227.041 224.881 153.241 349.158 186.644C473.436 220.046 547.236 348.002 513.995 472.442C480.753 596.882 353.059 670.681 228.781 637.279C104.503 603.877 30.7034 475.921 63.9448 351.481Z" stroke="#F8F8F8" stroke-opacity="0.3"/>
<path d="M89.9353 313.098C133.882 192.043 267.523 129.676 388.43 173.797C509.338 217.918 571.728 351.819 527.782 472.874C483.835 593.929 350.194 656.296 229.287 612.175C108.379 568.054 45.9889 434.153 89.9353 313.098Z" stroke="#F0F0F0" stroke-opacity="0.3"/>
<path d="M118.649 277.615C172.966 160.866 311.536 110.407 428.153 164.91C544.771 219.414 595.276 358.241 540.959 474.99C486.642 591.739 348.072 642.198 231.454 587.694C114.837 533.191 64.3318 394.363 118.649 277.615Z" stroke="#E9E9E9" stroke-opacity="0.3"/>
<path d="M149.828 245.233C214.102 133.679 356.546 95.5109 467.986 159.983C579.426 224.454 617.662 367.151 553.388 478.705C489.114 590.259 346.669 628.427 235.229 563.955C123.789 499.484 85.5536 356.787 149.828 245.233Z" stroke="#E1E1E1" stroke-opacity="0.3"/>
<path d="M183.196 216.187C256.938 110.676 402.173 85.0903 507.587 159.039C613.001 232.988 638.676 378.468 564.934 483.978C491.192 589.489 345.957 615.074 240.543 541.126C135.129 467.177 109.454 321.697 183.196 216.187Z" stroke="#DADADA" stroke-opacity="0.3"/>
<path d="M218.467 190.627C301.115 91.9631 448.035 79.1538 546.621 162.017C645.208 244.881 658.127 392.037 575.478 490.701C492.829 589.365 345.909 602.174 247.323 519.31C148.737 436.447 135.818 289.29 218.467 190.627Z" stroke="#D2D2D2" stroke-opacity="0.3"/>
<path d="M255.316 168.724C346.243 77.6577 493.729 77.7226 584.737 168.87C675.745 260.017 675.81 407.731 584.884 498.797C493.957 589.863 346.47 589.798 255.463 498.65C164.455 407.503 164.39 259.79 255.316 168.724Z" stroke="#CBCBCB" stroke-opacity="0.3"/>
<path d="M293.399 150.584C391.911 67.8082 538.843 80.7468 621.58 179.484C704.316 278.222 691.526 425.367 593.014 508.143C494.502 590.918 347.571 577.98 264.834 479.242C182.098 380.504 194.887 233.359 293.399 150.584Z" stroke="#C3C3C3" stroke-opacity="0.3"/>
<path d="M332.421 136.321C437.769 62.4665 583.027 88.1802 656.863 193.757C730.699 299.333 705.152 444.791 599.804 518.646C494.456 592.501 349.198 566.787 275.362 461.21C201.526 355.634 227.073 210.176 332.421 136.321Z" stroke="#BCBCBC" stroke-opacity="0.3"/>
<path d="M372.011 125.981C483.393 61.6087 625.872 99.902 690.245 211.514C754.618 323.126 716.508 465.789 605.126 530.161C493.744 594.533 351.266 556.24 286.892 444.628C222.519 333.016 260.629 190.353 372.011 125.981Z" stroke="#B4B4B4" stroke-opacity="0.3"/>
<path d="M411.853 119.608C528.422 65.2083 667.037 115.79 721.458 232.588C775.878 349.385 725.495 488.168 608.927 542.567C492.358 596.967 353.743 546.386 299.322 429.588C244.902 312.791 295.285 174.008 411.853 119.608Z" stroke="#ADADAD" stroke-opacity="0.3"/>
<path d="M451.57 117.221C572.438 73.207 706.133 135.692 750.188 256.787C794.242 377.881 731.969 511.727 611.101 555.74C490.233 599.754 356.537 537.269 312.483 416.175C268.429 295.08 330.702 161.234 451.57 117.221Z" stroke="#A5A5A5" stroke-opacity="0.3"/>
<path d="M490.856 118.774C615.103 85.481 742.864 159.394 776.215 283.864C809.567 408.334 735.879 536.224 611.632 569.516C487.384 602.808 359.624 528.896 326.272 404.426C292.921 279.956 366.608 152.066 490.856 118.774Z" stroke="#9E9E9E" stroke-opacity="0.3"/>
<path d="M529.338 124.228C656.02 101.91 776.872 186.688 799.267 313.586C821.663 440.484 737.121 561.445 610.439 583.763C483.758 606.08 362.906 521.302 340.51 394.404C318.115 267.507 402.657 146.545 529.338 124.228Z" stroke="#969696" stroke-opacity="0.3"/>
<path d="M566.677 133.477C694.829 122.304 807.853 217.302 819.122 345.662C830.391 474.022 735.638 587.134 607.487 598.307C479.335 609.479 366.311 514.482 355.042 386.122C343.773 257.762 438.526 144.649 566.677 133.477Z" stroke="#8F8F8F" stroke-opacity="0.3"/>
<path d="M602.567 146.438C731.213 146.495 835.548 250.989 835.605 379.835C835.662 508.68 731.419 613.082 602.773 613.025C474.127 612.968 369.792 508.474 369.734 379.628C369.677 250.783 473.921 146.381 602.567 146.438Z" stroke="#878787" stroke-opacity="0.3"/>
<path d="M636.68 162.942C764.841 174.229 859.695 287.425 848.539 415.775C837.383 544.125 724.444 639.023 596.282 627.736C468.121 616.45 373.267 503.254 384.423 374.904C395.579 246.554 508.518 151.656 636.68 162.942Z" stroke="#808080" stroke-opacity="0.3"/>
<path d="M668.72 182.836C795.422 205.266 880.071 326.302 857.788 453.18C835.504 580.058 714.727 664.729 588.026 642.299C461.324 619.869 376.675 498.833 398.958 371.955C421.242 245.077 542.019 160.407 668.72 182.836Z" stroke="#787878" stroke-opacity="0.3"/>
<path d="M698.385 205.923C822.663 239.325 896.463 367.281 863.222 491.721C829.981 616.161 702.286 689.96 578.008 656.558C453.731 623.156 379.93 495.2 413.171 370.76C446.413 246.32 574.108 172.52 698.385 205.923Z" stroke="#717171" stroke-opacity="0.3"/>
<path d="M725.431 231.975C846.338 276.096 908.728 409.997 864.782 531.052C820.836 652.107 687.195 714.474 566.287 670.353C445.379 626.232 382.989 492.331 426.936 371.276C470.882 250.221 604.523 187.854 725.431 231.975Z" stroke="#696969" stroke-opacity="0.3"/>
<path d="M749.59 260.765C866.208 315.269 916.713 454.096 862.396 570.845C808.079 687.594 669.509 738.053 552.891 683.549C436.274 629.046 385.769 490.219 440.086 373.47C494.403 256.721 632.972 206.262 749.59 260.765Z" stroke="#626262" stroke-opacity="0.3"/>
<path d="M770.634 292.016C882.074 356.488 920.31 499.185 856.036 610.739C791.762 722.293 649.317 760.46 537.877 695.989C426.437 631.517 388.202 488.82 452.476 377.266C516.75 265.712 659.194 227.545 770.634 292.016Z" stroke="#5A5A5A" stroke-opacity="0.3"/>
<path d="M788.368 325.463C893.783 399.412 919.458 544.892 845.716 650.403C771.974 755.913 626.739 781.499 521.325 707.55C415.91 633.601 390.235 488.12 463.977 382.61C537.719 277.1 682.954 251.514 788.368 325.463Z" stroke="#535353" stroke-opacity="0.3"/>
<path d="M802.598 360.795C901.185 443.658 914.104 590.815 831.455 689.479C748.806 788.142 601.886 800.951 503.3 718.088C404.714 635.225 391.795 488.068 474.444 389.404C557.092 290.74 704.012 277.931 802.598 360.795Z" stroke="#4B4B4B" stroke-opacity="0.3"/>
<path d="M813.221 397.704C904.229 488.852 904.294 636.565 813.367 727.631C722.441 818.697 574.954 818.632 483.946 727.485C392.939 636.337 392.874 488.624 483.8 397.558C574.726 306.492 722.213 306.557 813.221 397.704Z" stroke="#444444" stroke-opacity="0.3"/>
<path d="M820.056 435.868C902.792 534.605 890.002 681.751 791.49 764.526C692.978 847.302 546.047 834.363 463.31 735.625C380.574 636.888 393.363 489.742 491.875 406.967C590.387 324.191 737.319 337.13 820.056 435.868Z" stroke="#3C3C3C" stroke-opacity="0.3"/>
<path d="M823.027 474.956C896.862 580.533 871.315 725.99 765.967 799.845C660.619 873.7 515.362 847.986 441.526 742.41C367.69 636.833 393.237 491.376 498.585 417.521C603.933 343.666 749.191 369.38 823.027 474.956Z" stroke="#353535" stroke-opacity="0.3"/>
</svg>
