<svg xmlns="http://www.w3.org/2000/svg" width="19" height="14" viewBox="0 0 19 14" fill="none">
  <path d="M9.86755 13.0267L6.17463 12.9592C4.97895 12.9357 3.78029 12.9826 2.60806 12.7388C0.824823 12.3745 0.698483 10.5883 0.566293 9.09C0.384143 6.9836 0.454663 4.8389 0.798393 2.75011C0.992443 1.57806 1.75611 0.87868 2.93709 0.80258C6.92378 0.52638 10.937 0.55911 14.9149 0.68797C15.335 0.69978 15.758 0.76435 16.1722 0.83784C18.2171 1.19627 18.2669 3.22045 18.3995 4.9244C18.5317 6.646 18.4758 8.3764 18.2232 10.0862C18.0205 11.5019 17.6326 12.6891 15.9959 12.8037C13.9452 12.9536 11.9416 13.0743 9.88515 13.0358C9.88525 13.0267 9.87335 13.0267 9.86755 13.0267ZM7.69645 9.4426C9.24185 8.5553 10.7578 7.6828 12.2943 6.8014C10.746 5.9142 9.23295 5.0417 7.69645 4.16031V9.4426Z" fill="#928C97"/>
</svg>